<svg width="19" height="15" viewBox="0 0 19 15" fill="none" xmlns="http://www.w3.org/2000/svg">
<path fill-rule="evenodd" clip-rule="evenodd" d="M2.32611 0.486C2.41493 0.337758 2.54067 0.215066 2.69104 0.129891C2.84141 0.0447156 3.01129 -3.62359e-05 3.18411 2.20145e-08H15.0511C15.2239 -3.62359e-05 15.3938 0.0447156 15.5442 0.129891C15.6945 0.215066 15.8203 0.337758 15.9091 0.486L18.1631 4.243C18.2086 4.31889 18.2331 4.40548 18.2342 4.49394C18.2352 4.58239 18.2128 4.66956 18.1692 4.74652C18.1256 4.82349 18.0623 4.8875 17.9859 4.93203C17.9095 4.97657 17.8226 5.00002 17.7341 5H16.6191V13.5C16.6191 13.7652 16.5138 14.0196 16.3262 14.2071C16.1387 14.3946 15.8843 14.5 15.6191 14.5H8.61911C8.35389 14.5 8.09954 14.3946 7.912 14.2071C7.72446 14.0196 7.61911 13.7652 7.61911 13.5V8.2C7.61911 8.14696 7.59803 8.09609 7.56053 8.05858C7.52302 8.02107 7.47215 8 7.41911 8H4.31911C4.26606 8 4.21519 8.02107 4.17768 8.05858C4.14018 8.09609 4.11911 8.14696 4.11911 8.2V13.5C4.11911 13.7652 4.01375 14.0196 3.82621 14.2071C3.63868 14.3946 3.38432 14.5 3.11911 14.5H2.61911C2.35389 14.5 2.09954 14.3946 1.912 14.2071C1.72446 14.0196 1.61911 13.7652 1.61911 13.5V5H0.501106C0.412555 5.0002 0.325541 4.97687 0.24896 4.93241C0.17238 4.88795 0.10898 4.82395 0.0652437 4.74696C0.0215075 4.66996 -0.00099611 4.58273 3.38305e-05 4.49419C0.00106377 4.40564 0.0255901 4.31896 0.0711055 4.243L2.32611 0.486ZM9.61911 8.166C9.61911 7.936 9.80611 7.75 10.0361 7.75H14.2021C14.4321 7.75 14.6191 7.937 14.6191 8.167V11.083C14.6191 11.313 14.4331 11.5 14.2021 11.5H10.0361C9.98134 11.5 9.92712 11.4892 9.87653 11.4683C9.82593 11.4473 9.77996 11.4166 9.74124 11.3779C9.70252 11.3391 9.6718 11.2932 9.65085 11.2426C9.62989 11.192 9.61911 11.1378 9.61911 11.083V8.166Z" fill="white"/>
</svg>
