<svg width="24" height="24" viewBox="0 0 24 24" fill="none" xmlns="http://www.w3.org/2000/svg">
<g clip-path="url(#clip0_845_883)">
<path d="M0.510853 11.8563C0.510295 13.8728 1.03718 15.8417 2.03904 17.5771L0.415039 23.5066L6.48313 21.9156C8.16149 22.8292 10.042 23.308 11.9529 23.3081H11.9579C18.2663 23.3081 23.4015 18.1748 23.4042 11.8653C23.4054 8.80792 22.2158 5.93295 20.0545 3.76997C17.8936 1.60718 15.0196 0.415458 11.9575 0.414062C5.64834 0.414062 0.513551 5.54709 0.510946 11.8563" fill="url(#paint0_linear_845_883)"/>
<path d="M0.102465 11.8527C0.101813 13.9417 0.647581 15.981 1.68516 17.7786L0.00292969 23.9207L6.2886 22.2726C8.02051 23.2168 9.97046 23.7147 11.9547 23.7154H11.9598C18.4945 23.7154 23.8141 18.3975 23.8169 11.8621C23.818 8.69488 22.5856 5.71656 20.3471 3.47609C18.1083 1.23591 15.1316 0.00130233 11.9598 0C5.42395 0 0.105069 5.31721 0.102465 11.8527ZM3.84581 17.469L3.61112 17.0965C2.62451 15.5277 2.10377 13.7149 2.10451 11.8534C2.10656 6.4213 6.5274 2.00186 11.9635 2.00186C14.596 2.00298 17.0701 3.02921 18.9309 4.89116C20.7917 6.7533 21.8156 9.22865 21.8149 11.8614C21.8125 17.2935 17.3916 21.7135 11.9598 21.7135H11.9559C10.1872 21.7126 8.4526 21.2376 6.93986 20.34L6.57986 20.1265L2.84981 21.1045L3.84581 17.469Z" fill="url(#paint1_linear_845_883)"/>
<path d="M8.99597 6.89771C8.77401 6.4044 8.54043 6.39445 8.32936 6.3858C8.15652 6.37836 7.95894 6.37892 7.76155 6.37892C7.56397 6.37892 7.24294 6.45324 6.97159 6.74952C6.69997 7.04608 5.93457 7.76273 5.93457 9.22031C5.93457 10.6779 6.99624 12.0866 7.14424 12.2845C7.29243 12.482 9.19383 15.5689 12.2052 16.7564C14.7079 17.7433 15.2172 17.547 15.7603 17.4975C16.3036 17.4482 17.5133 16.7811 17.7601 16.0892C18.007 15.3975 18.007 14.8046 17.933 14.6807C17.8589 14.5572 17.6614 14.4831 17.3651 14.335C17.0688 14.1869 15.6122 13.4701 15.3406 13.3712C15.069 13.2724 14.8715 13.2231 14.6739 13.5198C14.4763 13.8159 13.909 14.4831 13.7361 14.6807C13.5633 14.8787 13.3904 14.9034 13.0942 14.7552C12.7977 14.6065 11.8436 14.2941 10.7116 13.2849C9.83085 12.4996 9.23624 11.5298 9.06341 11.2331C8.89057 10.937 9.0449 10.7764 9.19345 10.6288C9.32657 10.496 9.48983 10.2828 9.63811 10.1099C9.78583 9.93687 9.83513 9.81343 9.93392 9.61585C10.0328 9.41808 9.98331 9.24506 9.90936 9.09687C9.83513 8.94868 9.25941 7.48347 8.99597 6.89771Z" fill="white"/>
</g>
<defs>
<linearGradient id="paint0_linear_845_883" x1="11.9096" y1="23.5066" x2="11.9096" y2="0.414062" gradientUnits="userSpaceOnUse">
<stop stop-color="#1FAF38"/>
<stop offset="1" stop-color="#60D669"/>
</linearGradient>
<linearGradient id="paint1_linear_845_883" x1="11.9099" y1="23.9207" x2="11.9099" y2="0" gradientUnits="userSpaceOnUse">
<stop stop-color="#F9F9F9"/>
<stop offset="1" stop-color="white"/>
</linearGradient>
<clipPath id="clip0_845_883">
<rect width="23.82" height="24" fill="white"/>
</clipPath>
</defs>
</svg>
