<svg width="328" height="376" viewBox="0 0 328 376" fill="none" xmlns="http://www.w3.org/2000/svg">
<g opacity="0.06">
<path d="M64.9936 0.0504829L0 65.0441L64.9936 130.038L129.987 65.0441L64.9936 0.0504829Z" fill="white"/>
<path d="M195.007 5.70963e-05L130.014 64.9937L195.007 129.987L260.001 64.9936L195.007 5.70963e-05Z" fill="white"/>
<path d="M324.956 0.0151938L259.963 65.0088L324.956 130.002L389.95 65.0088L324.956 0.0151938Z" fill="white"/>
<path d="M65.0444 130.064L0.0507812 195.058L65.0444 260.052L130.038 195.058L65.0444 130.064Z" fill="white"/>
<path d="M195.058 130.014L130.064 195.008L195.058 260.001L260.052 195.008L195.058 130.014Z" fill="white"/>
<path d="M325.007 130.029L260.014 195.023L325.007 260.016L390.001 195.023L325.007 130.029Z" fill="white"/>
<path d="M65.0287 260.013L0.0351562 325.006L65.0288 390L130.022 325.006L65.0287 260.013Z" fill="white"/>
<path d="M195.042 259.962L130.049 324.956L195.042 389.95L260.036 324.956L195.042 259.962Z" fill="white"/>
<path d="M324.992 259.977L259.998 324.971L324.992 389.965L389.985 324.971L324.992 259.977Z" fill="white"/>
</g>
<path d="M184.029 178.115H123.594L89.1746 159.278C85.2564 157.171 82.0508 159.09 82.0508 163.543V226.2C82.0508 230.653 85.3385 232.735 89.3569 230.826L124.291 214.276H184.028C187.509 214.276 190.331 211.45 190.331 207.965V184.426C190.332 180.94 187.51 178.115 184.029 178.115Z" fill="#242424"/>
<path d="M250.067 181.942H288.199L301.627 189.291C303.155 190.113 304.406 189.364 304.406 187.627V163.182C304.406 161.445 303.123 160.633 301.555 161.378L287.927 167.835H250.066C248.708 167.835 247.607 168.937 247.607 170.297V179.48C247.608 180.839 248.709 181.942 250.067 181.942Z" fill="#242424"/>
<path d="M301.544 457.616L213.168 258.85C212.81 257.705 211.912 256.813 210.764 256.463C210.732 256.453 210.7 256.442 210.667 256.433C210.541 256.398 210.413 256.368 210.282 256.347C210.133 256.321 209.982 256.309 209.829 256.301C209.789 256.3 209.751 256.289 209.712 256.289C209.705 256.289 209.698 256.291 209.693 256.291C209.684 256.291 209.676 256.289 209.667 256.289H209.664C208.226 256.29 206.924 257.139 206.34 258.455L117.921 457.62C117.106 459.459 117.935 461.612 119.772 462.427C121.609 463.245 123.759 462.413 124.573 460.574L206.072 277.033V432.861C206.072 434.873 207.701 436.504 209.712 436.504C211.721 436.504 213.35 434.873 213.35 432.861V277.176L294.895 460.58C295.498 461.937 296.827 462.743 298.221 462.743C298.716 462.743 299.217 462.642 299.699 462.427C301.535 461.609 302.361 459.455 301.544 457.616Z" fill="#242424"/>
<path d="M232.541 246.725L228.721 250.906L262.97 282.279L266.791 278.099L232.541 246.725Z" fill="#242424"/>
<path d="M227.861 253.325C227.861 262.939 220.077 270.732 210.476 270.732C200.873 270.732 193.09 262.939 193.09 253.325C193.09 243.712 200.873 235.918 210.476 235.918C220.077 235.918 227.861 243.712 227.861 253.325Z" fill="#5E5E5E"/>
<path d="M239.009 250.065C239.009 253.55 236.187 256.375 232.706 256.375H188.244C184.763 256.375 181.941 253.551 181.941 250.065V204.666C181.941 201.18 184.763 198.355 188.244 198.355H232.706C236.187 198.355 239.009 201.18 239.009 204.666V250.065Z" fill="#242424"/>
<path d="M308.589 315.363C306.051 318.483 301.467 318.954 298.35 316.412L258.847 284.207C255.73 281.666 255.26 277.077 257.799 273.956C260.337 270.835 264.921 270.365 268.038 272.906L307.541 305.112C310.657 307.653 311.127 312.242 308.589 315.363Z" fill="#5E5E5E"/>
<path d="M243.367 158.685H176.758V140.064L210.973 136.062L243.367 140.064V158.685Z" fill="#242424"/>
<path d="M178.3 85.8672C158.216 85.8672 141.936 102.168 141.936 122.276C141.936 142.384 158.216 158.686 178.3 158.686C198.383 158.686 214.664 142.384 214.664 122.276C214.664 102.168 198.383 85.8672 178.3 85.8672ZM178.3 134.324C171.654 134.324 166.267 128.931 166.267 122.276C166.267 115.623 171.654 110.23 178.3 110.23C184.944 110.23 190.331 115.623 190.331 122.276C190.331 128.93 184.944 134.324 178.3 134.324Z" fill="#242424"/>
<path d="M193.836 122.278C193.836 130.868 186.88 137.834 178.3 137.834C169.72 137.834 162.764 130.869 162.764 122.278C162.764 113.687 169.72 106.723 178.3 106.723C186.88 106.723 193.836 113.687 193.836 122.278Z" fill="#5E5E5E"/>
<path d="M242.584 85.8672C222.501 85.8672 206.221 102.168 206.221 122.276C206.221 142.384 222.501 158.686 242.584 158.686C262.666 158.686 278.948 142.384 278.948 122.276C278.948 102.168 262.666 85.8672 242.584 85.8672ZM242.584 133.741C236.26 133.741 231.134 128.608 231.134 122.276C231.134 115.945 236.26 110.812 242.584 110.812C248.908 110.812 254.035 115.945 254.035 122.276C254.035 128.608 248.908 133.741 242.584 133.741Z" fill="#242424"/>
<path d="M257.948 122.277C257.948 130.773 251.069 137.66 242.584 137.66C234.098 137.66 227.221 130.773 227.221 122.277C227.221 113.781 234.099 106.895 242.584 106.895C251.069 106.895 257.948 113.781 257.948 122.277Z" fill="#5E5E5E"/>
<path d="M264.884 230.634C264.884 234.119 262.061 236.944 258.58 236.944H162.367C158.886 236.944 156.064 234.119 156.064 230.634V161.756C156.064 158.27 158.886 155.445 162.367 155.445H258.58C262.061 155.445 264.884 158.27 264.884 161.756V230.634Z" fill="#5E5E5E"/>
</svg>
