<svg width="328" height="376" viewBox="0 0 328 376" fill="none" xmlns="http://www.w3.org/2000/svg">
<g opacity="0.06">
<path d="M64.9936 0.0504829L0 65.0441L64.9936 130.038L129.987 65.0441L64.9936 0.0504829Z" fill="white"/>
<path d="M195.007 5.70963e-05L130.014 64.9937L195.007 129.987L260.001 64.9936L195.007 5.70963e-05Z" fill="white"/>
<path d="M324.956 0.0151938L259.963 65.0088L324.956 130.002L389.95 65.0088L324.956 0.0151938Z" fill="white"/>
<path d="M65.0444 130.064L0.0507812 195.058L65.0444 260.052L130.038 195.058L65.0444 130.064Z" fill="white"/>
<path d="M195.058 130.014L130.064 195.008L195.058 260.001L260.052 195.008L195.058 130.014Z" fill="white"/>
<path d="M325.007 130.029L260.014 195.023L325.007 260.016L390.001 195.023L325.007 130.029Z" fill="white"/>
<path d="M65.0287 260.013L0.0351562 325.006L65.0288 390L130.022 325.006L65.0287 260.013Z" fill="white"/>
<path d="M195.042 259.962L130.049 324.956L195.042 389.95L260.036 324.956L195.042 259.962Z" fill="white"/>
<path d="M324.992 259.977L259.998 324.971L324.992 389.965L389.985 324.971L324.992 259.977Z" fill="white"/>
</g>
<path d="M283.451 245.152H62.0039V252.398H283.451V245.152Z" fill="#080808"/>
<path d="M62.0039 252.398V378.462C62.0039 384.836 68.2502 390 75.9535 390H269.501C277.204 390 283.451 384.836 283.451 378.462V252.398H62.0039Z" fill="#222222"/>
<path d="M290.246 217.656H53.4023V246.51H290.246C292.732 246.51 294.745 244.089 294.745 241.101V223.066C294.745 220.078 292.732 217.656 290.246 217.656Z" fill="#222222"/>
<path d="M95.8207 221.484L68.832 246.514H113.344L140.342 221.484H95.8207Z" fill="#D1D3D4"/>
<path d="M162.338 221.484L135.34 246.514H179.862L206.85 221.484H162.338Z" fill="#D1D3D4"/>
<path d="M230.621 221.484L203.637 246.514H248.144L275.127 221.484H230.621Z" fill="#D1D3D4"/>
<path d="M290.305 186.34L61.9768 219.043L58.2852 191.001L286.613 158.298C288.966 157.958 291.181 160.04 291.565 162.945L293.869 180.473C294.253 183.377 292.658 186.005 290.305 186.34Z" fill="#222222"/>
<path d="M106.235 209.247L77.2031 188.121L119.736 182.066L148.777 203.188L106.235 209.247Z" fill="#D1D3D4"/>
<path d="M169.803 200.208L140.762 179.082L183.3 173.027L212.331 194.154L169.803 200.208Z" fill="#D1D3D4"/>
<path d="M235.043 190.923L206.012 169.797L248.54 163.742L277.571 184.868L235.043 190.923Z" fill="#D1D3D4"/>
<path d="M133.079 226.566L93.1741 178.914L58.2852 183.182V248.367H120.365C133.241 248.362 140.669 235.628 133.079 226.566Z" fill="#282828"/>
<path d="M76.0647 226.828C72.6093 226.828 69.8086 229.629 69.8086 233.084C69.8086 236.54 72.6093 239.34 76.0647 239.34C79.5202 239.34 82.3209 236.54 82.3209 233.084C82.3209 229.629 79.5202 226.828 76.0647 226.828Z" fill="#D1D3D4"/>
<path d="M76.0647 187.91C72.6093 187.91 69.8086 190.711 69.8086 194.166C69.8086 197.622 72.6093 200.423 76.0647 200.423C79.5202 200.423 82.3209 197.622 82.3209 194.166C82.3209 190.711 79.5202 187.91 76.0647 187.91Z" fill="#D1D3D4"/>
<path d="M118.346 239.34C121.801 239.34 124.602 236.539 124.602 233.084C124.602 229.629 121.801 226.828 118.346 226.828C114.891 226.828 112.09 229.629 112.09 233.084C112.09 236.539 114.891 239.34 118.346 239.34Z" fill="#D1D3D4"/>
<path d="M64.7604 252.398H62.0039V378.462C62.0039 384.836 68.2502 390 75.9535 390H269.501C273.567 390 277.195 388.538 279.744 386.244L64.7604 252.398Z" fill="#4A4A4A"/>
<path d="M172.732 265.09C141.751 265.09 116.633 290.208 116.633 321.189C116.633 352.169 141.746 377.287 172.732 377.287C203.712 377.287 228.83 352.169 228.83 321.189C228.83 290.208 203.712 265.09 172.732 265.09ZM172.732 367.389C147.215 367.389 126.531 346.706 126.531 321.189C126.531 295.672 147.215 274.988 172.732 274.988C198.249 274.988 218.932 295.672 218.932 321.189C218.932 346.706 198.244 367.389 172.732 367.389Z" fill="#DBDBDB"/>
<path d="M207.84 318.225L157.136 288.952C154.847 287.633 151.992 289.282 151.992 291.926V350.476C151.992 353.114 154.852 354.768 157.136 353.449L207.84 324.176C210.129 322.847 210.129 319.544 207.84 318.225Z" fill="#DBDBDB"/>
</svg>
