<svg width="328" height="376" viewBox="0 0 328 376" fill="none" xmlns="http://www.w3.org/2000/svg">
<g opacity="0.06">
<path d="M64.9936 0.0504829L0 65.0441L64.9936 130.038L129.987 65.0441L64.9936 0.0504829Z" fill="white"/>
<path d="M195.007 5.70963e-05L130.014 64.9937L195.007 129.987L260.001 64.9936L195.007 5.70963e-05Z" fill="white"/>
<path d="M324.956 0.0151938L259.963 65.0088L324.956 130.002L389.95 65.0088L324.956 0.0151938Z" fill="white"/>
<path d="M65.0444 130.064L0.0507812 195.058L65.0444 260.052L130.038 195.058L65.0444 130.064Z" fill="white"/>
<path d="M195.058 130.014L130.064 195.008L195.058 260.001L260.052 195.008L195.058 130.014Z" fill="white"/>
<path d="M325.007 130.029L260.014 195.023L325.007 260.016L390.001 195.023L325.007 130.029Z" fill="white"/>
<path d="M65.0287 260.013L0.0351562 325.006L65.0288 390L130.022 325.006L65.0287 260.013Z" fill="white"/>
<path d="M195.042 259.962L130.049 324.956L195.042 389.95L260.036 324.956L195.042 259.962Z" fill="white"/>
<path d="M324.992 259.977L259.998 324.971L324.992 389.965L389.985 324.971L324.992 259.977Z" fill="white"/>
</g>
<path d="M303.923 318.32C292.967 314.792 280.875 317.678 270.536 322.744C260.203 327.81 251.03 334.951 241.018 340.626C217.936 353.715 190.339 358.661 164.141 354.405C137.949 350.149 113.338 336.719 95.5851 316.992C98.1349 324.076 90.3562 322.744 94.3917 329.099C108.176 350.81 130.261 367.106 155.073 373.873C179.886 380.645 207.185 377.822 230.085 366.123C250.225 355.838 267.742 343.099 290.575 338.929C299.451 337.309 308.701 336.763 317.41 339.116C320.458 339.94 323.224 341.296 325.745 343.017C324.307 332.272 317.645 322.739 303.923 318.32Z" fill="#404040"/>
<path d="M332.392 409.14C326.195 415.519 312.454 424.995 302.289 422.953C298.569 413.295 292.923 398.423 290.297 390.808C312.713 387.745 328.496 363.215 325.759 343.023C332.43 347.543 337.238 354.833 340.008 363.177C345.184 378.888 343.07 398.203 332.392 409.14Z" fill="#6B6B6B"/>
<path d="M243.265 360.57C279.323 324.512 279.323 266.05 243.265 229.992C207.207 193.934 148.745 193.934 112.687 229.993C76.6292 266.051 76.6292 324.512 112.687 360.57C148.745 396.628 207.207 396.628 243.265 360.57Z" fill="#6B6B6B"/>
<path d="M177.997 382.311C226.064 382.311 265.03 343.345 265.03 295.278C265.03 247.212 226.064 208.246 177.997 208.246C129.931 208.246 90.9648 247.212 90.9648 295.278C90.9648 343.345 129.931 382.311 177.997 382.311Z" fill="#0A0A0A"/>
<path d="M234.311 351.613C265.423 320.502 265.423 270.061 234.311 238.95C203.2 207.838 152.759 207.838 121.648 238.95C90.5369 270.061 90.537 320.502 121.648 351.613C152.759 382.724 203.2 382.724 234.311 351.613Z" fill="#6B6B6B"/>
<path d="M177.993 365.982C217.03 365.982 248.677 334.335 248.677 295.297C248.677 256.26 217.03 224.613 177.993 224.613C138.955 224.613 107.309 256.26 107.309 295.297C107.309 334.335 138.955 365.982 177.993 365.982Z" fill="#0A0A0A"/>
<path d="M220.58 337.904C244.107 314.377 244.107 276.232 220.58 252.705C197.053 229.178 158.908 229.178 135.381 252.705C111.854 276.232 111.854 314.377 135.381 337.904C158.908 361.431 197.053 361.431 220.58 337.904Z" fill="#6B6B6B"/>
<path d="M177.986 176.141C108.097 176.141 51.4414 232.796 51.4414 302.685C51.4414 372.573 108.097 429.229 177.986 429.229C247.874 429.229 304.53 372.573 304.53 302.685C304.535 232.796 247.874 176.141 177.986 176.141ZM234.157 229.48C236.093 225.161 240.417 222.688 246.086 222.688C253.381 222.688 262.157 226.786 269.552 233.649C276.132 240.335 280.618 248.104 283.063 256.909C285.675 268.34 284.251 279.056 279.406 285.134C276.933 288.235 273.64 289.946 270.141 289.946C269.777 289.946 269.413 289.926 269.044 289.888L266.393 289.845C244.083 289.49 228.113 288.834 222.798 286.778C219.788 285.709 216.994 283.03 215.767 280.906C214.756 279.152 213.38 276.77 213.414 273.075C213.457 268.042 218.351 257.594 232.106 233.146C232.921 231.703 233.615 230.457 234.157 229.48ZM141.263 207.059C143.645 199.529 152.565 192.393 163.981 188.865C168.606 187.662 173.092 187.087 177.554 187.087C182.011 187.087 186.498 187.663 190.883 188.794C202.544 192.388 211.459 199.529 213.845 207.054C215.044 210.84 214.54 214.507 212.436 217.421L211.046 219.736C199.601 238.854 191.056 252.336 186.617 255.907C184.183 257.982 180.468 259.066 178.009 259.066C176.001 259.066 173.245 259.066 170.053 257.182C165.721 254.627 159.116 245.171 144.829 221.044C143.981 219.616 143.252 218.384 142.677 217.426C140.568 214.512 140.065 210.85 141.263 207.059ZM72.4147 257.906C74.9213 248.862 79.4025 241.093 85.8057 234.574C93.3831 227.534 102.154 223.436 109.449 223.436C115.118 223.436 119.446 225.909 121.378 230.227L122.667 232.547C133.513 252.039 140.923 266.192 141.8 271.824C142.38 274.968 141.455 278.73 140.228 280.858C139.221 282.603 137.846 284.98 134.63 286.801C130.245 289.284 118.747 290.271 90.6799 290.583C89.036 290.602 87.6126 290.617 86.4959 290.636C86.1268 290.674 85.7626 290.693 85.3983 290.693C81.8996 290.693 78.607 288.982 76.1339 285.881C71.2932 279.809 69.8649 269.087 72.4147 257.906ZM121.814 375.89C119.878 380.208 115.555 382.681 109.885 382.681C102.59 382.681 93.8146 378.583 86.4241 371.72C79.8436 365.034 75.3575 357.265 72.9132 348.461C70.3011 337.03 71.7244 326.313 76.5699 320.236C79.043 317.135 82.3309 315.424 85.8345 315.424C86.1987 315.424 86.563 315.443 86.932 315.482L89.5825 315.525C111.893 315.879 127.862 316.536 133.178 318.592C136.188 319.661 138.982 322.34 140.209 324.463C141.22 326.217 142.596 328.599 142.562 332.295C142.519 337.327 137.625 347.775 123.87 372.223C123.055 373.666 122.36 374.907 121.814 375.89ZM214.713 398.306C212.331 405.835 203.411 412.972 191.99 416.499C187.365 417.702 182.879 418.277 178.417 418.277C173.96 418.277 169.474 417.702 165.088 416.566C153.427 412.972 144.513 405.835 142.126 398.306C140.928 394.519 141.431 390.853 143.535 387.939L144.925 385.624C156.37 366.506 164.916 353.023 169.349 349.453C171.784 347.378 175.498 346.294 177.957 346.294C179.965 346.294 182.721 346.294 185.913 348.178C190.246 350.733 196.85 360.189 211.137 384.316C211.986 385.744 212.714 386.976 213.289 387.934C215.403 390.853 215.911 394.519 214.713 398.306ZM270.165 370.795C262.588 377.836 253.817 381.929 246.523 381.929C240.853 381.929 236.525 379.461 234.593 375.137L233.304 372.818C222.458 353.325 215.048 339.172 214.171 333.541C213.596 330.392 214.516 326.634 215.743 324.506C216.755 322.762 218.125 320.385 221.341 318.563C225.727 316.081 237.224 315.093 265.286 314.782C266.93 314.763 268.354 314.748 269.47 314.729C269.839 314.691 270.204 314.672 270.568 314.672C274.067 314.672 277.359 316.383 279.832 319.483C284.678 325.561 286.106 336.277 283.552 347.464C281.055 356.508 276.569 364.277 270.165 370.795Z" fill="#355168"/>
<path d="M198.568 295.292C198.568 306.646 189.361 315.853 178.006 315.853C166.652 315.853 157.445 306.646 157.445 295.292C157.445 283.937 166.652 274.73 178.006 274.73C189.361 274.73 198.568 283.933 198.568 295.292Z" fill="#355168"/>
<path d="M177.986 168.746C108.097 168.746 51.4414 225.402 51.4414 295.29C51.4414 365.179 108.097 421.834 177.986 421.834C247.874 421.834 304.53 365.179 304.53 295.29C304.535 225.402 247.874 168.746 177.986 168.746ZM234.157 222.085C236.093 217.767 240.417 215.294 246.086 215.294C253.381 215.294 262.157 219.392 269.552 226.255C276.132 232.941 280.618 240.71 283.063 249.514C285.675 260.945 284.251 271.662 279.406 277.739C276.933 280.84 273.64 282.551 270.141 282.551C269.777 282.551 269.413 282.532 269.044 282.494L266.393 282.45C244.083 282.096 228.113 281.439 222.798 279.383C219.788 278.314 216.994 275.635 215.767 273.512C214.756 271.758 213.38 269.38 213.414 265.685C213.457 260.653 218.351 250.204 232.106 225.756C232.921 224.309 233.615 223.063 234.157 222.085ZM141.263 199.664C143.645 192.135 152.565 184.998 163.981 181.471C168.606 180.268 173.092 179.693 177.554 179.693C182.011 179.693 186.498 180.268 190.883 181.404C202.544 184.998 211.459 192.14 213.845 199.664C215.044 203.451 214.54 207.117 212.436 210.031L211.046 212.346C199.601 231.465 191.055 244.947 186.622 248.517C184.187 250.593 180.473 251.676 178.014 251.676C176.006 251.676 173.25 251.676 170.058 249.792C165.726 247.238 159.121 237.781 144.834 213.655C143.985 212.226 143.257 210.995 142.682 210.036C140.568 207.122 140.065 203.456 141.263 199.664ZM194.262 295.29C194.262 304.277 186.977 311.567 177.986 311.567C168.999 311.567 161.709 304.282 161.709 295.29C161.709 286.299 168.994 279.014 177.986 279.014C186.977 279.014 194.262 286.299 194.262 295.29ZM72.4147 250.511C74.9213 241.467 79.4025 233.698 85.8057 227.18C93.3831 220.139 102.154 216.046 109.449 216.046C115.118 216.046 119.446 218.519 121.378 222.838L122.667 225.157C133.513 244.65 140.923 258.803 141.8 264.434C142.38 267.583 141.455 271.341 140.228 273.469C139.221 275.213 137.846 277.59 134.63 279.412C130.245 281.894 118.747 282.882 90.6799 283.193C89.036 283.212 87.6126 283.227 86.5007 283.246C86.1317 283.284 85.7674 283.303 85.4031 283.303C81.9044 283.303 78.6117 281.592 76.1386 278.491C71.2931 272.414 69.8649 261.693 72.4147 250.511ZM121.814 368.491C119.878 372.809 115.555 375.282 109.885 375.282C102.585 375.282 93.8145 371.184 86.4192 364.321C79.8387 357.635 75.3527 349.866 72.9084 341.061C70.2963 329.635 71.7197 318.914 76.5653 312.837C79.0383 309.736 82.3261 308.025 85.8297 308.025C86.1939 308.025 86.5582 308.044 86.9272 308.082L89.5777 308.125C111.888 308.48 127.858 309.137 133.173 311.193C136.183 312.262 138.977 314.941 140.204 317.064C141.215 318.818 142.586 321.2 142.557 324.895C142.514 329.928 137.621 340.376 123.865 364.824C123.055 366.272 122.36 367.513 121.814 368.491ZM214.713 390.911C212.331 398.441 203.411 405.577 191.99 409.105C187.365 410.308 182.879 410.883 178.417 410.883C173.96 410.883 169.474 410.308 165.088 409.172C153.427 405.577 144.508 398.436 142.126 390.911C140.928 387.125 141.431 383.458 143.535 380.544L144.925 378.23C156.37 359.111 164.916 345.629 169.354 342.058C171.788 339.983 175.503 338.9 177.962 338.9C179.97 338.9 182.726 338.9 185.918 340.783C190.25 343.338 196.855 352.794 211.142 376.921C211.99 378.349 212.719 379.581 213.294 380.54C215.403 383.459 215.911 387.125 214.713 390.911ZM270.165 363.401C262.588 370.441 253.817 374.534 246.523 374.534C240.853 374.534 236.525 372.066 234.593 367.743L233.304 365.423C222.458 345.931 215.048 331.778 214.171 326.146C213.596 323.002 214.516 319.24 215.743 317.112C216.755 315.367 218.125 312.99 221.341 311.169C225.727 308.686 237.224 307.699 265.286 307.387C266.93 307.368 268.354 307.354 269.47 307.335C269.839 307.296 270.204 307.277 270.568 307.277C274.067 307.277 277.359 308.988 279.832 312.089C284.678 318.166 286.106 328.883 283.552 340.069C281.055 349.113 276.569 356.882 270.165 363.401Z" fill="#0A0A0A"/>
<path d="M177.991 266.809C162.261 266.809 149.508 279.562 149.508 295.292C149.508 311.022 162.261 323.776 177.991 323.776C193.721 323.776 206.475 311.022 206.475 295.292C206.475 279.562 193.721 266.809 177.991 266.809ZM177.991 311.568C169.005 311.568 161.715 304.283 161.715 295.292C161.715 286.301 169 279.016 177.991 279.016C186.983 279.016 194.268 286.301 194.268 295.292C194.268 304.279 186.983 311.568 177.991 311.568Z" fill="#BFE3E8"/>
<path d="M177.986 168.746C108.097 168.746 51.4414 225.402 51.4414 295.29C51.4414 341.224 75.9181 381.441 112.54 403.617L242.017 186.154C223.23 175.106 201.36 168.746 177.986 168.746ZM72.4147 250.511C74.9213 241.467 79.4025 233.698 85.8057 227.18C93.3831 220.139 102.154 216.046 109.449 216.046C115.118 216.046 119.446 218.519 121.378 222.838L122.667 225.157C133.513 244.65 140.923 258.803 141.8 264.434C142.38 267.583 141.455 271.341 140.228 273.469C139.221 275.213 137.846 277.59 134.63 279.412C130.245 281.894 118.747 282.882 90.6799 283.193C89.036 283.212 87.6126 283.227 86.5007 283.246C86.1317 283.284 85.7674 283.303 85.4031 283.303C81.9044 283.303 78.6117 281.592 76.1386 278.491C71.2931 272.414 69.8649 261.693 72.4147 250.511ZM123.87 364.829C123.06 366.272 122.36 367.518 121.819 368.495C119.882 372.814 115.559 375.287 109.89 375.287C102.59 375.287 93.8194 371.189 86.4241 364.326C79.8436 357.64 75.3575 349.871 72.9132 341.066C70.3011 329.64 71.7244 318.919 76.5699 312.841C79.043 309.741 82.3309 308.03 85.8345 308.03C86.1987 308.03 86.563 308.049 86.932 308.087L89.5825 308.13C111.893 308.485 127.862 309.141 133.178 311.198C136.188 312.266 138.982 314.946 140.209 317.069C141.22 318.823 142.591 321.205 142.562 324.9C142.514 329.933 137.621 340.381 123.87 364.829ZM211.046 212.351C199.601 231.469 191.055 244.952 186.622 248.522C184.187 250.597 180.473 251.681 178.014 251.681C176.006 251.681 173.25 251.681 170.058 249.797C165.726 247.242 159.121 237.786 144.834 213.659C143.985 212.231 143.257 210.999 142.682 210.041C140.573 207.122 140.07 203.456 141.268 199.664C143.65 192.135 152.569 184.998 163.986 181.471C168.611 180.268 173.097 179.693 177.559 179.693C182.016 179.693 186.502 180.268 190.888 181.404C202.549 184.998 211.463 192.14 213.85 199.664C215.048 203.451 214.545 207.117 212.441 210.031L211.046 212.351Z" fill="#3B3B3B"/>
<path d="M316.621 325.355C320.752 330.028 325.296 335.828 329.677 342.811C333.698 349.214 336.751 355.287 339.08 360.645C334.474 363.765 330.42 366.372 330.146 366.018C330.137 366.003 330.132 365.989 330.132 365.97C330.132 365.136 325.574 341.9 325.574 341.9L316.621 325.355Z" fill="#6B6B6B"/>
<path d="M297.785 393.843C297.785 393.843 323.216 384.305 325.766 370.152C337.422 379.263 337.422 379.263 337.422 379.263C337.422 379.263 340.609 403.865 308.718 417.989C304.164 404.776 297.785 393.843 297.785 393.843Z" fill="#272727"/>
<path d="M331.556 350.086C329.989 356.671 330.243 360.803 327.852 366.06L337.514 372.67C337.514 372.67 337.844 357.922 331.556 350.086Z" fill="#272727"/>
</svg>
