<svg width="328" height="376" viewBox="0 0 328 376" fill="none" xmlns="http://www.w3.org/2000/svg">
<g opacity="0.06">
<path d="M64.9936 0.0504829L0 65.0441L64.9936 130.038L129.987 65.0441L64.9936 0.0504829Z" fill="white"/>
<path d="M195.007 5.70963e-05L130.014 64.9937L195.007 129.987L260.001 64.9936L195.007 5.70963e-05Z" fill="white"/>
<path d="M324.956 0.0151938L259.963 65.0088L324.956 130.002L389.95 65.0088L324.956 0.0151938Z" fill="white"/>
<path d="M65.0444 130.064L0.0507812 195.058L65.0444 260.052L130.038 195.058L65.0444 130.064Z" fill="white"/>
<path d="M195.058 130.014L130.064 195.008L195.058 260.001L260.052 195.008L195.058 130.014Z" fill="white"/>
<path d="M325.007 130.029L260.014 195.023L325.007 260.016L390.001 195.023L325.007 130.029Z" fill="white"/>
<path d="M65.0287 260.013L0.0351562 325.006L65.0288 390L130.022 325.006L65.0287 260.013Z" fill="white"/>
<path d="M195.042 259.962L130.049 324.956L195.042 389.95L260.036 324.956L195.042 259.962Z" fill="white"/>
<path d="M324.992 259.977L259.998 324.971L324.992 389.965L389.985 324.971L324.992 259.977Z" fill="white"/>
</g>
<path d="M127.406 407.089L279.389 253.562L262.244 236.59L93.4707 407.089H127.406Z" fill="black"/>
<path d="M261.084 407.089L92.3055 236.59L75.166 253.562L227.144 407.089H261.084Z" fill="black"/>
<path d="M86.3828 80.3906V153.564C146.358 164.236 208.135 164.383 268.156 153.974V80.8967C208.409 93.5729 146.06 93.3958 86.3828 80.3906Z" fill="#282828"/>
<path d="M73.4863 76.9751V217.051H97.4573V76.9751C97.4573 70.3562 92.0933 64.9922 85.4743 64.9922C78.8553 64.9871 73.4863 70.3562 73.4863 76.9751Z" fill="black"/>
<path d="M257.092 76.9751V217.051H281.063V76.9751C281.063 70.3562 275.699 64.9922 269.08 64.9922C262.461 64.9871 257.092 70.3562 257.092 76.9751Z" fill="black"/>
<path d="M279.833 214.932C253.438 209.72 218.952 205.034 178.464 204.943C136.888 204.852 101.556 209.629 74.7109 214.932V224.921H279.833V214.932Z" fill="#595959"/>
<path d="M74.7109 224.906V246.878V252.632C76.2999 257.374 77.8888 262.12 79.4828 266.862C145.075 266.862 213.051 267.262 279.833 265.081V246.883V224.911H74.7109V224.906Z" fill="#282828"/>
<path d="M73.1823 271.602H70.2876C63.9166 271.602 58.75 266.436 58.75 260.065V179.008H84.7199V260.065C84.7199 266.436 79.5533 271.602 73.1823 271.602Z" fill="#282828"/>
<path d="M100.201 189.24C100.201 183.593 95.6717 179.008 90.0901 179.008H53.3822C47.7955 179.008 43.2715 183.587 43.2715 189.24V190.96H100.201V189.24Z" fill="#595959"/>
<path d="M43.2715 190.969V191.404C43.2715 197.051 47.8006 201.636 53.3822 201.636H90.0901C95.6717 201.636 100.201 197.057 100.201 191.404V190.969H43.2715Z" fill="#595959"/>
<path d="M284.254 271.602H281.36C274.989 271.602 269.822 266.436 269.822 260.065V179.008H295.792V260.065C295.792 266.436 290.625 271.602 284.254 271.602Z" fill="#282828"/>
<path d="M254.344 190.969V191.404C254.344 197.051 258.873 201.636 264.454 201.636H301.162C306.749 201.636 311.273 197.057 311.273 191.404V190.969H254.344Z" fill="#595959"/>
<path d="M311.273 189.24C311.273 183.593 306.744 179.008 301.162 179.008H264.454C258.868 179.008 254.344 183.587 254.344 189.24V190.96H311.273V189.24Z" fill="#595959"/>
<path d="M110.846 135.32C112.794 125.093 114.747 114.872 116.696 104.645C119.013 105.085 121.336 105.505 123.659 105.894C125.941 106.279 127.494 107.2 128.329 108.698C129.164 110.196 129.397 112.245 129.018 114.856C128.339 119.502 127.661 124.152 126.983 128.798C126.528 131.91 125.632 134.111 124.281 135.391C122.93 136.672 120.931 137.102 118.31 136.662C115.82 136.242 113.33 135.796 110.846 135.32ZM116.665 132.634C117.227 132.73 117.789 132.831 118.35 132.927C119.291 133.089 120.03 132.922 120.551 132.431C121.073 131.94 121.447 130.948 121.69 129.45C122.51 124.375 123.325 119.299 124.144 114.229C124.402 112.63 124.387 111.461 124.099 110.717C123.81 109.973 123.178 109.523 122.206 109.356C121.736 109.275 121.265 109.194 120.794 109.113C119.413 116.951 118.036 124.79 116.665 132.634Z" fill="#AD7D43"/>
<path d="M130.533 138.505C131.905 128.187 133.281 117.869 134.652 107.551C136.236 107.763 137.82 107.96 139.404 108.148C138.184 118.486 136.965 128.824 135.745 139.163C134.01 138.955 132.269 138.738 130.533 138.505Z" fill="#AD7D43"/>
<path d="M149.2 125.774C148.664 125.708 148.132 125.638 147.596 125.567C147.166 130.465 146.736 135.358 146.306 140.257C144.565 140.105 142.819 139.938 141.078 139.761C142.141 129.407 143.204 119.049 144.266 108.695C146.893 108.964 149.519 109.201 152.145 109.409C153.785 109.535 154.984 109.95 155.748 110.659C156.512 111.367 156.993 112.314 157.18 113.508C157.362 114.697 157.403 116.24 157.292 118.138C157.175 120.036 156.882 121.463 156.401 122.429C155.92 123.396 155.095 124.013 153.932 124.276C155.05 124.544 155.789 125.319 156.158 126.609C156.533 127.899 156.598 130.546 156.361 134.539C156.118 138.536 156.057 140.687 156.168 140.991C154.422 140.884 152.677 140.768 150.931 140.642C150.814 140.399 151.032 136.669 151.573 129.463C151.68 128.082 151.568 127.15 151.255 126.67C150.946 126.174 150.258 125.885 149.2 125.774ZM147.935 121.888C148.593 121.943 149.256 121.999 149.919 122.055C150.546 122.105 151.022 122.009 151.346 121.756C151.669 121.508 151.912 121.058 152.079 120.405C152.246 119.752 152.378 118.75 152.479 117.394C152.484 117.328 152.489 117.263 152.494 117.202C152.621 115.517 152.56 114.403 152.312 113.862C152.064 113.32 151.416 113.012 150.374 112.926C149.828 112.88 149.281 112.835 148.734 112.789C148.471 115.82 148.203 118.857 147.935 121.888Z" fill="#AD7D43"/>
<path d="M160.797 141.221C161.283 130.822 161.763 120.422 162.249 110.023C165.756 110.185 169.263 110.292 172.77 110.342C172.749 111.709 172.729 113.075 172.714 114.441C170.776 114.416 168.838 114.37 166.895 114.31C166.798 117.336 166.702 120.362 166.606 123.388C168.499 123.449 170.396 123.494 172.289 123.52C172.269 124.855 172.249 126.191 172.228 127.527C170.31 127.497 168.392 127.456 166.48 127.396C166.373 130.705 166.272 134.015 166.166 137.329C168.317 137.395 170.472 137.446 172.623 137.476C172.603 138.842 172.587 140.209 172.567 141.575C168.645 141.519 164.719 141.403 160.797 141.221Z" fill="#AD7D43"/>
<path d="M189.455 139.576C188.326 141.064 186.474 141.848 183.929 141.899C181.378 141.945 179.466 141.185 178.211 139.647C176.956 138.104 176.344 135.882 176.354 132.983C176.364 128.443 176.379 123.909 176.389 119.37C176.404 114.72 177.649 111.825 180.088 110.646C180.989 110.211 182.082 109.983 183.362 109.963C187.76 109.877 190.067 112.534 190.3 118.07C190.356 119.502 190.411 120.929 190.467 122.361C188.868 122.422 187.269 122.477 185.675 122.518C185.639 121.187 185.609 119.856 185.574 118.525C185.533 116.916 185.361 115.772 185.073 115.084C184.779 114.401 184.228 114.067 183.423 114.082C182.618 114.097 182.067 114.472 181.758 115.211C181.454 115.949 181.308 117.073 181.328 118.586C181.389 123.449 181.444 128.307 181.505 133.17C181.525 134.85 181.702 136.049 182.031 136.768C182.36 137.486 182.952 137.836 183.808 137.82C184.658 137.805 185.24 137.426 185.543 136.682C185.847 135.938 185.978 134.723 185.938 133.033C185.902 131.545 185.862 130.053 185.827 128.565C187.476 128.524 189.131 128.469 190.781 128.403C190.841 129.876 190.897 131.348 190.958 132.816C191.079 135.832 190.583 138.088 189.455 139.576Z" fill="#AD7D43"/>
<path d="M197.321 141.023C196.81 132.001 196.299 122.978 195.787 113.955C194.548 114.026 193.308 114.087 192.068 114.148C192.007 112.776 191.942 111.405 191.881 110.034C195.868 109.851 199.856 109.598 203.833 109.27C203.945 110.636 204.061 112.002 204.172 113.374C202.983 113.47 201.794 113.561 200.6 113.647C201.243 122.659 201.89 131.677 202.533 140.689C200.797 140.811 199.057 140.922 197.321 141.023Z" fill="#AD7D43"/>
<path d="M221.984 136.845C220.987 138.484 219.165 139.471 216.534 139.765C213.902 140.058 211.888 139.496 210.527 138.11C209.161 136.723 208.356 134.512 208.088 131.486C207.663 126.744 207.238 122.003 206.818 117.256C206.322 111.548 208.407 108.512 213.062 107.996C215.476 107.728 217.293 108.228 218.543 109.539C219.792 110.845 220.612 112.889 220.982 115.682C221.609 120.404 222.237 125.12 222.864 129.841C223.269 132.867 222.98 135.205 221.984 136.845ZM214.074 134.806C214.454 135.489 215.112 135.782 216.048 135.681C216.984 135.575 217.561 135.139 217.768 134.37C217.981 133.601 217.976 132.326 217.763 130.54C217.196 125.722 216.63 120.905 216.058 116.092C215.886 114.625 215.618 113.567 215.258 112.925C214.894 112.282 214.307 112.008 213.487 112.1C212.667 112.191 212.126 112.591 211.868 113.299C211.61 114.013 211.554 115.095 211.706 116.553C212.212 121.38 212.718 126.213 213.219 131.041C213.416 132.862 213.7 134.117 214.074 134.806Z" fill="#AD7D43"/>
<path d="M233.181 122.3C232.645 122.365 232.109 122.431 231.572 122.492C232.357 127.345 233.141 132.198 233.93 137.046C232.2 137.324 230.469 137.592 228.733 137.85C227.22 127.553 225.712 117.25 224.199 106.952C226.81 106.567 229.422 106.152 232.028 105.707C233.652 105.428 234.922 105.53 235.838 106.031C236.759 106.532 237.457 107.331 237.928 108.439C238.404 109.548 238.819 111.035 239.173 112.898C239.527 114.765 239.593 116.222 239.36 117.28C239.127 118.333 238.48 119.137 237.412 119.679C238.566 119.663 239.477 120.23 240.155 121.394C240.833 122.553 241.551 125.098 242.3 129.03C243.049 132.967 243.515 135.062 243.697 135.33C241.971 135.659 240.246 135.978 238.515 136.277C238.343 136.069 237.64 132.4 236.395 125.28C236.157 123.919 235.823 123.044 235.403 122.654C234.973 122.264 234.234 122.148 233.181 122.3ZM231 118.849C231.658 118.742 232.311 118.636 232.969 118.525C233.591 118.419 234.032 118.206 234.285 117.887C234.538 117.568 234.664 117.072 234.669 116.399C234.669 115.726 234.553 114.719 234.32 113.378C234.31 113.312 234.3 113.252 234.285 113.186C233.996 111.521 233.657 110.459 233.283 109.993C232.908 109.533 232.205 109.391 231.167 109.563C230.626 109.654 230.084 109.74 229.543 109.831C230.024 112.832 230.509 115.838 231 118.849Z" fill="#AD7D43"/>
<path d="M185.258 341.439C185.258 345.852 181.68 349.43 177.268 349.43C172.855 349.43 169.277 345.852 169.277 341.439C169.277 337.027 172.855 333.449 177.268 333.449C181.68 333.449 185.258 337.027 185.258 341.439Z" fill="#282828"/>
</svg>
