<svg width="328" height="376" viewBox="0 0 328 376" fill="none" xmlns="http://www.w3.org/2000/svg">
<g opacity="0.06">
<path d="M64.9936 0.0504829L0 65.0441L64.9936 130.038L129.987 65.0441L64.9936 0.0504829Z" fill="white"/>
<path d="M195.007 5.70963e-05L130.014 64.9937L195.007 129.987L260.001 64.9936L195.007 5.70963e-05Z" fill="white"/>
<path d="M324.956 0.0151938L259.963 65.0088L324.956 130.002L389.95 65.0088L324.956 0.0151938Z" fill="white"/>
<path d="M65.0444 130.064L0.0507812 195.058L65.0444 260.052L130.038 195.058L65.0444 130.064Z" fill="white"/>
<path d="M195.058 130.014L130.064 195.008L195.058 260.001L260.052 195.008L195.058 130.014Z" fill="white"/>
<path d="M325.007 130.029L260.014 195.023L325.007 260.016L390.001 195.023L325.007 130.029Z" fill="white"/>
<path d="M65.0287 260.013L0.0351562 325.006L65.0288 390L130.022 325.006L65.0287 260.013Z" fill="white"/>
<path d="M195.042 259.962L130.049 324.956L195.042 389.95L260.036 324.956L195.042 259.962Z" fill="white"/>
<path d="M324.992 259.977L259.998 324.971L324.992 389.965L389.985 324.971L324.992 259.977Z" fill="white"/>
</g>
<path d="M218.21 141.299V154.913H201.255V141.299H96.1448V154.913H79.1891V141.299H72.1191V381.298H79.1891V365.329H96.1448V381.298H201.259V365.329H218.215V381.298H226.982V141.299H218.21ZM96.1448 349.756H79.1891V332.852H96.1448V349.756ZM96.1448 317.283H79.1891V300.379H96.1448V317.283ZM96.1448 284.81H79.1891V267.906H96.1448V284.81ZM96.1448 252.337H79.1891V235.433H96.1448V252.337ZM96.1448 219.864H79.1891V202.96H96.1448V219.864ZM96.1448 187.39H79.1891V170.487H96.1448V187.39ZM218.21 349.756H201.255V332.852H218.21V349.756ZM218.21 317.283H201.255V300.379H218.21V317.283ZM218.21 284.81H201.255V267.906H218.21V284.81ZM218.21 252.337H201.255V235.433H218.21V252.337ZM218.21 219.864H201.255V202.96H218.21V219.864ZM218.21 187.39H201.255V170.487H218.21V187.39Z" fill="#3E3E3E"/>
<path d="M193.885 204.705H104.199V324.044H193.885V204.705Z" fill="#010101"/>
<path d="M193.885 141.299H104.199V182.14H193.885V141.299Z" fill="#010101"/>
<path d="M193.885 346.61H104.199V381.297H193.885V346.61Z" fill="#010101"/>
<path d="M72.1289 141.299V378.623L221.087 141.299H72.1289Z" fill="#5E5E5E"/>
<path d="M233.254 283.052L140.023 155.769C141.528 154.533 143.728 154.636 145.105 156.014L229.479 249.268L246.628 277.205L233.254 283.052Z" fill="#7E7E7E"/>
<path d="M260.736 252.659L106.846 204.118C106.16 205.942 106.973 207.987 108.722 208.847L220.403 263.706L237.382 262.897L258.301 266.559L260.736 252.659Z" fill="#828282"/>
<path d="M226.546 245.158C231.195 245.971 234.307 250.4 233.489 255.053C232.676 259.703 228.243 262.814 223.594 261.996C218.945 261.183 215.838 256.755 216.651 252.101C217.469 247.452 221.897 244.345 226.546 245.158Z" fill="#828282"/>
<path d="M226.035 248.07C222.993 247.538 220.093 249.569 219.562 252.615C219.256 254.355 219.811 256.033 220.897 257.264L229.955 250.904C229.166 249.466 227.774 248.37 226.035 248.07Z" fill="#DFDFED"/>
<path d="M220.893 257.265C221.706 258.186 222.801 258.863 224.103 259.094C227.145 259.625 230.045 257.594 230.576 254.548C230.802 253.246 230.539 251.981 229.951 250.905L220.893 257.265Z" fill="#828282"/>
<path d="M231.258 280.001C231.258 280.001 248.674 307.877 250.517 320.225C252.36 332.574 246.305 334.525 239.832 348.096C219.21 388.41 256.36 409.851 283.643 406.941C302.846 400.919 306.39 385.294 306.16 373.786C306.019 366.575 303.687 359.58 299.631 353.615L245.492 273.951L231.258 280.001ZM290.887 355.185C299.071 368.028 296.608 384.236 285.392 391.381C274.176 398.526 258.447 393.91 250.263 381.063C242.079 368.22 244.542 352.012 255.758 344.867C266.979 337.722 282.708 342.343 290.887 355.185Z" fill="black"/>
<path d="M251.768 265.79L345.967 292.302C351.241 293.788 356.807 293.934 362.137 292.66C373.443 289.961 390.408 282.182 389.994 259.82C384.104 233.021 351.998 204.581 320.296 236.918C309.479 247.358 309.545 253.718 297.248 255.885C284.95 258.048 252.994 250.367 252.994 250.367L251.768 265.79ZM324.343 253.563C327.319 241.651 340.786 234.76 354.423 238.163C368.06 241.572 376.705 253.986 373.729 265.898C370.754 277.81 357.286 284.701 343.649 281.298C330.012 277.89 321.372 265.47 324.343 253.563Z" fill="black"/>
</svg>
