<svg width="42" height="42" viewBox="0 0 42 42" fill="none" xmlns="http://www.w3.org/2000/svg">
<path fill-rule="evenodd" clip-rule="evenodd" d="M31.5565 37.973H9.03337C7.00958 37.973 5.36328 36.3286 5.36328 34.3029C5.36328 32.2772 7.00772 30.6328 9.03337 30.6328H31.5565C31.6144 30.6328 31.6724 30.6422 31.7322 30.6627L39.7341 33.8656C39.9097 33.9348 40.0256 34.1085 40.0256 34.2935C40.0256 34.4785 39.9078 34.6542 39.7341 34.7215L31.7322 37.9244C31.6742 37.9636 31.6163 37.9748 31.5565 37.9748V37.973ZM9.03337 31.5689C7.52537 31.5689 6.28828 32.7948 6.28828 34.314C6.28828 35.822 7.51413 37.0591 9.03337 37.0591H31.4685L38.3117 34.314L31.4685 31.5689H9.03337Z" fill="white"/>
<path fill-rule="evenodd" clip-rule="evenodd" d="M31.5531 37.9712C31.3008 37.9712 31.0859 37.7676 31.0859 37.5041V31.1C31.0859 30.8477 31.2896 30.6328 31.5531 30.6328C31.8166 30.6328 32.0203 30.8365 32.0203 31.1V37.5041C32.0203 37.7563 31.8072 37.9712 31.5531 37.9712Z" fill="white"/>
<path fill-rule="evenodd" clip-rule="evenodd" d="M10.6273 37.9712C10.3751 37.9712 10.1602 37.7676 10.1602 37.5041V31.1C10.1602 30.8477 10.3638 30.6328 10.6273 30.6328C10.8908 30.6328 11.0945 30.8365 11.0945 31.1V37.5041C11.0851 37.7563 10.8815 37.9712 10.6273 37.9712Z" fill="white"/>
<path fill-rule="evenodd" clip-rule="evenodd" d="M8.03748 24.5506C7.96834 24.5506 7.90106 24.5319 7.83379 24.502C7.67869 24.4235 7.57031 24.2591 7.57031 24.0834V7.71179C7.57031 7.53613 7.66748 7.38103 7.82258 7.30255L12.2607 4.99474C15.998 3.06816 20.5539 4.09031 23.1046 7.42774C23.1625 7.50622 23.2018 7.6034 23.2018 7.70991V24.0815C23.2018 24.246 23.114 24.3936 22.9775 24.4796C22.8318 24.5674 22.6655 24.5674 22.5197 24.4889C21.946 24.1675 21.4004 23.8367 20.8641 23.5153C17.2725 21.3346 14.4303 19.6229 8.32715 24.4496C8.23932 24.5188 8.14215 24.5468 8.03377 24.5468L8.03748 24.5506ZM15.2299 20.4339C15.3664 20.4339 15.4934 20.4339 15.628 20.4432C17.7601 20.5591 19.5018 21.6205 21.3403 22.7305C21.643 22.9155 21.9626 23.1005 22.2746 23.2948V7.87659C19.978 4.99511 15.9772 4.12991 12.6865 5.8229L8.49129 7.99245V23.1476C11.0121 21.3088 13.1742 20.4324 15.2279 20.4324L15.2299 20.4339Z" fill="white"/>
<path fill-rule="evenodd" clip-rule="evenodd" d="M23.0181 27.6531H22.9396C22.0053 27.6344 21.1588 27.2251 20.5851 26.5244H5.77967C5.5274 26.5244 5.3125 26.3207 5.3125 26.0572V6.43402C5.3125 6.18175 5.51618 5.97619 5.77032 5.97619L10.6269 5.91826C10.8791 5.90892 11.094 6.12195 11.094 6.37609C11.094 6.62836 10.8903 6.84326 10.6362 6.84326L6.23734 6.89184V25.5989H20.8074C20.9531 25.5989 21.0989 25.6681 21.1867 25.7933C21.596 26.367 22.2369 26.709 22.9582 26.7276C23.6795 26.7463 24.3298 26.4361 24.769 25.8904L24.8475 25.7839C24.9353 25.6662 25.0717 25.5989 25.2175 25.5989H39.1561V6.89183H34.9814C34.7292 6.89183 34.5143 6.68814 34.5143 6.42466C34.5143 6.16118 34.7179 5.95749 34.9814 5.95749H39.6251C39.8773 5.95749 40.0922 6.16118 40.0922 6.42466V26.0569C40.0922 26.3092 39.8886 26.5241 39.6251 26.5241H25.453C24.8495 27.2436 23.973 27.6528 23.02 27.6528L23.0181 27.6531Z" fill="white"/>
<path fill-rule="evenodd" clip-rule="evenodd" d="M37.4522 24.5476H8.03748C7.78521 24.5476 7.57031 24.3439 7.57031 24.0804C7.57031 23.817 7.774 23.6133 8.03748 23.6133H37.4522C37.7044 23.6133 37.9193 23.817 37.9193 24.0804C37.9193 24.3439 37.7063 24.5476 37.4522 24.5476Z" fill="white"/>
<path fill-rule="evenodd" clip-rule="evenodd" d="M37.4537 24.5473C37.3565 24.5473 37.25 24.5174 37.1715 24.4501C31.0592 19.6232 28.2263 21.3444 24.6346 23.5158C24.0983 23.8372 23.5545 24.1679 22.9789 24.4894C22.8332 24.5679 22.6575 24.5679 22.5211 24.48C22.3754 24.3922 22.2969 24.2464 22.2969 24.082V7.71037C22.2969 7.6132 22.3268 7.50668 22.394 7.4282C24.9448 4.08886 29.499 3.06857 33.238 4.9952L37.6761 7.30301C37.8312 7.38149 37.9283 7.53659 37.9283 7.71225V24.0839C37.9283 24.2595 37.8312 24.424 37.6649 24.5025C37.5864 24.5417 37.5191 24.5511 37.45 24.5511L37.4537 24.5473ZM23.2142 7.87329V23.2915C23.5356 23.1065 23.8477 22.9122 24.1485 22.7272C25.9892 21.6079 27.7308 20.5576 29.8609 20.4399C32.0304 20.3129 34.3083 21.1799 36.9863 23.1551V8.00002L32.7912 5.83046C29.5116 4.12623 25.5016 4.9933 23.214 7.87478L23.2142 7.87329Z" fill="white"/>
</svg>
