<svg width="42" height="42" viewBox="0 0 42 42" fill="none" xmlns="http://www.w3.org/2000/svg">
<g clip-path="url(#clip0_1_8355)">
<path d="M31.1428 3.81641H10.8587C8.22771 3.81641 6.08594 5.95818 6.08594 8.58913V36.0323C6.08594 38.6633 8.22771 40.805 10.8587 40.805H13.3241L13.943 41.7327C14.0534 41.8983 14.2398 41.9982 14.4397 41.9982H22.792C22.9799 41.9982 23.1574 41.9102 23.2692 41.7596L23.9852 40.805H31.1442C33.7752 40.805 35.917 38.6633 35.917 36.0323L35.9155 8.58914C35.9155 5.95818 33.7737 3.81641 31.1428 3.81641ZM22.4923 40.805H14.7574L12.6485 37.6416V30.0663C13.6358 30.0663 14.4382 30.8688 14.4382 31.8561V34.2425C14.4382 34.5721 14.7052 34.8391 15.0348 34.8391C15.3645 34.8391 15.6314 34.5721 15.6314 34.2425V24.697C15.6314 24.3674 15.8984 24.1004 16.228 24.1004C16.5576 24.1004 16.8246 24.3674 16.8246 24.697V34.2425C16.8246 34.5721 17.0916 34.8391 17.4212 34.8391C17.7508 34.8391 18.0178 34.5721 18.0178 34.2425V30.6629C18.0178 30.3333 18.2848 30.0663 18.6144 30.0663C18.944 30.0663 19.211 30.3333 19.211 30.6629V34.2425C19.211 34.5721 19.478 34.8391 19.8076 34.8391C20.1372 34.8391 20.4042 34.5721 20.4042 34.2425V31.2595C20.4042 30.9299 20.6711 30.6629 21.0007 30.6629C21.3304 30.6629 21.5973 30.9299 21.5973 31.2595V34.2425C21.5973 34.5721 21.8643 34.8391 22.1939 34.8391C22.5235 34.8391 22.7905 34.5721 22.7905 34.2425V32.4527C22.7905 32.1231 23.0575 31.8561 23.3871 31.8561C23.7167 31.8561 23.9837 32.1231 23.9837 32.4527V38.8168L22.4923 40.805ZM12.0518 28.8732C11.7222 28.8732 11.4553 29.1402 11.4553 29.4698V36.6289C10.7975 36.6289 10.2621 36.0935 10.2621 35.4357V9.18572C10.2621 8.52797 10.7975 7.99254 11.4553 7.99254H16.3952L16.8561 9.37514C16.9366 9.61826 17.1648 9.78232 17.4214 9.78232H24.5804C24.837 9.78232 25.0652 9.61825 25.1457 9.37514L25.6066 7.99254H30.5465C31.2043 7.99254 31.7397 8.52797 31.7397 9.18572V35.4357C31.7397 36.0935 31.2043 36.6289 30.5465 36.6289H25.1774V32.4526C25.1774 31.4652 24.375 30.6628 23.3876 30.6628C23.152 30.6628 22.9283 30.7105 22.7224 30.7941C22.5166 30.0334 21.826 29.4696 21.0013 29.4696C20.6806 29.4696 20.3838 29.5606 20.1243 29.7097C19.8066 29.2086 19.2518 28.873 18.6149 28.873C18.4046 28.873 18.2063 28.9163 18.0183 28.9834V25.8841C18.767 25.3218 19.2115 24.4523 19.2115 23.5037C19.2115 21.8586 17.8737 20.5207 16.2286 20.5207C14.5835 20.5207 13.2456 21.8586 13.2456 23.5037C13.2456 24.4493 13.6901 25.3203 14.4388 25.8826V29.4845C13.9391 29.1057 13.3231 28.873 12.649 28.873L12.0518 28.8732ZM14.5501 24.0929C14.4845 23.9049 14.4382 23.7096 14.4382 23.5037C14.4382 22.5164 15.2407 21.7139 16.228 21.7139C17.2153 21.7139 18.0178 22.5164 18.0178 23.5037C18.0178 23.7095 17.9715 23.9049 17.9059 24.0929C17.6568 23.4038 17.0021 22.9071 16.228 22.9071C15.4539 22.9071 14.7991 23.4038 14.5501 24.0929ZM34.7223 36.0323C34.7223 38.0056 33.116 39.6119 31.1428 39.6119H24.8786L25.0576 39.3732C25.1352 39.2703 25.1769 39.145 25.1769 39.0153V37.8221H30.5461C31.8615 37.8221 32.9324 36.7512 32.9324 35.4357V9.18572C32.9324 7.87025 31.8615 6.79936 30.5461 6.79936H25.1769C24.9204 6.79936 24.6922 6.96342 24.6117 7.20653L24.1508 8.58913H17.8523L17.3915 7.20653C17.3109 6.96342 17.0827 6.79936 16.8262 6.79936H11.4571C10.1416 6.79936 9.07071 7.87025 9.07071 9.18572V35.4357C9.07071 36.7512 10.1416 37.8221 11.4571 37.8221C11.4571 37.9399 11.4914 38.0548 11.557 38.1532L12.5295 39.6119H10.8605C8.88725 39.6119 7.28094 38.0055 7.28094 36.0323L7.27945 8.58913C7.27945 6.61589 8.88576 5.00958 10.859 5.00958H31.1431C33.1163 5.00958 34.7226 6.61589 34.7226 8.58913L34.7223 36.0323ZM16.2278 19.3278C17.8729 19.3278 19.2107 17.9899 19.2107 16.3448C19.2107 14.6997 17.8729 13.3619 16.2278 13.3619C14.5827 13.3619 13.2448 14.6997 13.2448 16.3448C13.2448 17.9899 14.5827 19.3278 16.2278 19.3278ZM16.2278 14.555C17.2151 14.555 18.0176 15.3575 18.0176 16.3448C18.0176 17.3322 17.2151 18.1346 16.2278 18.1346C15.2404 18.1346 14.438 17.3322 14.438 16.3448C14.438 15.3575 15.2404 14.555 16.2278 14.555ZM23.3869 6.79955C23.3869 7.12917 23.1199 7.39614 22.7903 7.39614C22.4607 7.39614 22.1937 7.12917 22.1937 6.79955C22.1937 6.46994 22.4607 6.20296 22.7903 6.20296C23.1199 6.20296 23.3869 6.46994 23.3869 6.79955ZM21.0005 6.79955C21.0005 7.12917 20.7335 7.39614 20.4039 7.39614H19.2107C18.8811 7.39614 18.6142 7.12917 18.6142 6.79955C18.6142 6.46994 18.8811 6.20296 19.2107 6.20296H20.4039C20.7335 6.20296 21.0005 6.46994 21.0005 6.79955ZM22.1937 14.555H28.1596C28.4892 14.555 28.7562 14.822 28.7562 15.1516C28.7562 15.4812 28.4892 15.7482 28.1596 15.7482H22.1937C21.8641 15.7482 21.5971 15.4812 21.5971 15.1516C21.5971 14.822 21.8641 14.555 22.1937 14.555ZM21.5971 17.538C21.5971 17.2084 21.8641 16.9414 22.1937 16.9414H25.7732C26.1029 16.9414 26.3698 17.2084 26.3698 17.538C26.3698 17.8676 26.1029 18.1346 25.7732 18.1346H22.1937C21.8641 18.1346 21.5971 17.8676 21.5971 17.538ZM28.7562 22.3107C28.7562 22.6403 28.4892 22.9073 28.1596 22.9073H22.1937C21.8641 22.9073 21.5971 22.6403 21.5971 22.3107C21.5971 21.9811 21.8641 21.7141 22.1937 21.7141H28.1596C28.4892 21.7141 28.7562 21.9811 28.7562 22.3107ZM26.3698 24.6971C26.3698 25.0267 26.1029 25.2937 25.7732 25.2937H22.1937C21.8641 25.2937 21.5971 25.0267 21.5971 24.6971C21.5971 24.3675 21.8641 24.1005 22.1937 24.1005H25.7732C26.1029 24.1005 26.3698 24.3675 26.3698 24.6971ZM28.5817 29.6443C28.8144 29.877 28.8144 30.2543 28.5817 30.4885L27.3885 31.6817C27.2722 31.798 27.1201 31.8562 26.9664 31.8562C26.8143 31.8562 26.6607 31.798 26.5443 31.6817C26.3117 31.449 26.3117 31.0716 26.5443 30.8375L27.3154 30.0664L26.5443 29.2953C26.3117 29.0627 26.3117 28.6853 26.5443 28.4512C26.777 28.2185 27.1544 28.2185 27.3885 28.4512L28.5817 29.6443ZM18.6143 11.5721C18.6143 11.2425 18.8813 10.9755 19.2109 10.9755H22.7905C23.1201 10.9755 23.3871 11.2425 23.3871 11.5721C23.3871 11.9017 23.1201 12.1687 22.7905 12.1687H19.2109C18.8813 12.1687 18.6143 11.9017 18.6143 11.5721Z" fill="white"/>
</g>
<defs>
<clipPath id="clip0_1_8355">
<rect width="42" height="42" fill="white"/>
</clipPath>
</defs>
</svg>
