<svg width="138" height="26" viewBox="0 0 138 26" fill="none" xmlns="http://www.w3.org/2000/svg">
<path d="M13 0L15.9187 8.98278H25.3637L17.7225 14.5344L20.6412 23.5172L13 17.9656L5.35879 23.5172L8.27747 14.5344L0.636266 8.98278H10.0813L13 0Z" fill="#FFBF47"/>
<path d="M41 0L43.9187 8.98278H53.3637L45.7225 14.5344L48.6412 23.5172L41 17.9656L33.3588 23.5172L36.2775 14.5344L28.6363 8.98278H38.0813L41 0Z" fill="#FFBF47"/>
<path d="M69 0L71.9187 8.98278H81.3637L73.7225 14.5344L76.6412 23.5172L69 17.9656L61.3588 23.5172L64.2775 14.5344L56.6363 8.98278H66.0813L69 0Z" fill="#FFBF47"/>
<path d="M97 0L99.9187 8.98278H109.364L101.723 14.5344L104.641 23.5172L97 17.9656L89.3588 23.5172L92.2775 14.5344L84.6363 8.98278H94.0813L97 0Z" fill="#FFBF47"/>
<path d="M125 0L127.919 8.98278H137.364L129.723 14.5344L132.641 23.5172L125 17.9656L117.359 23.5172L120.277 14.5344L112.636 8.98278H122.081L125 0Z" fill="url(#paint0_linear_760_7124)"/>
<defs>
<linearGradient id="paint0_linear_760_7124" x1="144.926" y1="25.9319" x2="125" y2="26" gradientUnits="userSpaceOnUse">
<stop offset="0.99" stop-color="white"/>
<stop offset="0.9999" stop-color="#FFBF47"/>
</linearGradient>
</defs>
</svg>
