<svg width="32" height="32" viewBox="0 0 32 32" fill="none" xmlns="http://www.w3.org/2000/svg">
<path fill-rule="evenodd" clip-rule="evenodd" d="M5.33464 15.9974C5.33483 13.9447 5.92732 11.9356 7.04102 10.2112C8.15472 8.48689 9.74232 7.12052 11.6133 6.27608C13.4843 5.43164 15.5592 5.145 17.5891 5.45056C19.6189 5.75612 21.5175 6.64089 23.057 7.99872C24.5965 9.35654 25.7115 11.1297 26.2682 13.1055C26.8249 15.0813 26.7997 17.1758 26.1956 19.1376C25.5914 21.0994 24.4341 22.8453 22.8623 24.1656C21.2906 25.486 19.3713 26.3248 17.3346 26.5814V18.6641H20.0013C20.3549 18.6641 20.6941 18.5236 20.9441 18.2735C21.1942 18.0235 21.3346 17.6844 21.3346 17.3307C21.3346 16.9771 21.1942 16.638 20.9441 16.3879C20.6941 16.1379 20.3549 15.9974 20.0013 15.9974H17.3346V13.3307C17.3346 12.9771 17.4751 12.638 17.7252 12.3879C17.9752 12.1379 18.3143 11.9974 18.668 11.9974H19.3346C19.6883 11.9974 20.0274 11.8569 20.2774 11.6069C20.5275 11.3568 20.668 11.0177 20.668 10.6641C20.668 10.3104 20.5275 9.9713 20.2774 9.72125C20.0274 9.4712 19.6883 9.33073 19.3346 9.33073H18.668C17.6071 9.33073 16.5897 9.75216 15.8395 10.5023C15.0894 11.2524 14.668 12.2699 14.668 13.3307V15.9974H12.0013C11.6477 15.9974 11.3085 16.1379 11.0585 16.3879C10.8084 16.638 10.668 16.9771 10.668 17.3307C10.668 17.6844 10.8084 18.0235 11.0585 18.2735C11.3085 18.5236 11.6477 18.6641 12.0013 18.6641H14.668V26.5814C12.0901 26.2566 9.71945 25.0021 8.00097 23.0534C6.2825 21.1046 5.33439 18.5956 5.33464 15.9974ZM16.0013 29.3307C23.3653 29.3307 29.3346 23.3614 29.3346 15.9974C29.3346 8.6334 23.3653 2.66406 16.0013 2.66406C8.6373 2.66406 2.66797 8.6334 2.66797 15.9974C2.66797 23.3614 8.6373 29.3307 16.0013 29.3307Z" fill="white"/>
</svg>
