<svg width="32" height="32" viewBox="0 0 32 32" fill="none" xmlns="http://www.w3.org/2000/svg">
<path d="M24 4C25.0609 4 26.0783 4.42143 26.8284 5.17157C27.5786 5.92172 28 6.93913 28 8V24C28 25.0609 27.5786 26.0783 26.8284 26.8284C26.0783 27.5786 25.0609 28 24 28H8C6.93913 28 5.92172 27.5786 5.17157 26.8284C4.42143 26.0783 4 25.0609 4 24V8C4 6.93913 4.42143 5.92172 5.17157 5.17157C5.92172 4.42143 6.93913 4 8 4H24ZM24 6.66667H8C7.64638 6.66667 7.30724 6.80714 7.05719 7.05719C6.80714 7.30724 6.66667 7.64638 6.66667 8V24C6.66667 24.3536 6.80714 24.6928 7.05719 24.9428C7.30724 25.1929 7.64638 25.3333 8 25.3333H24C24.3536 25.3333 24.6928 25.1929 24.9428 24.9428C25.1929 24.6928 25.3333 24.3536 25.3333 24V8C25.3333 7.64638 25.1929 7.30724 24.9428 7.05719C24.6928 6.80714 24.3536 6.66667 24 6.66667ZM10.6667 13.3333C10.9932 13.3334 11.3085 13.4533 11.5525 13.6703C11.7965 13.8873 11.9525 14.1863 11.9907 14.5107L12 14.6667V21.3333C11.9996 21.6732 11.8695 22 11.6362 22.2472C11.4029 22.4943 11.0841 22.643 10.7448 22.6629C10.4056 22.6828 10.0715 22.5724 9.81089 22.3543C9.55029 22.1362 9.3828 21.8268 9.34267 21.4893L9.33333 21.3333V14.6667C9.33333 14.313 9.47381 13.9739 9.72386 13.7239C9.97391 13.4738 10.313 13.3333 10.6667 13.3333ZM14.6667 12C14.9789 12 15.2813 12.1095 15.5211 12.3096C15.7608 12.5096 15.9228 12.7875 15.9787 13.0947C16.2472 12.9396 16.5246 12.8002 16.8093 12.6773C17.6987 12.2973 19.0307 12.088 20.2333 12.4653C20.864 12.6653 21.4973 13.0387 21.9667 13.6747C22.3867 14.2413 22.6133 14.9307 22.6587 15.7053L22.6667 16V21.3333C22.6663 21.6732 22.5362 22 22.3029 22.2472C22.0696 22.4943 21.7507 22.643 21.4115 22.6629C21.0722 22.6828 20.7382 22.5724 20.4776 22.3543C20.217 22.1362 20.0495 21.8268 20.0093 21.4893L20 21.3333V16C20 15.56 19.8933 15.3547 19.824 15.26C19.7244 15.1363 19.5873 15.0484 19.4333 15.0093C18.9693 14.8627 18.3013 14.94 17.8573 15.1293C17.1907 15.4147 16.58 15.8627 16.164 16.2773L16 16.4533V21.3333C15.9996 21.6732 15.8695 22 15.6362 22.2472C15.4029 22.4943 15.0841 22.643 14.7448 22.6629C14.4056 22.6828 14.0715 22.5724 13.8109 22.3543C13.5503 22.1362 13.3828 21.8268 13.3427 21.4893L13.3333 21.3333V13.3333C13.3333 12.9797 13.4738 12.6406 13.7239 12.3905C13.9739 12.1405 14.313 12 14.6667 12ZM10.6667 9.33333C11.0203 9.33333 11.3594 9.47381 11.6095 9.72386C11.8595 9.97391 12 10.313 12 10.6667C12 11.0203 11.8595 11.3594 11.6095 11.6095C11.3594 11.8595 11.0203 12 10.6667 12C10.313 12 9.97391 11.8595 9.72386 11.6095C9.47381 11.3594 9.33333 11.0203 9.33333 10.6667C9.33333 10.313 9.47381 9.97391 9.72386 9.72386C9.97391 9.47381 10.313 9.33333 10.6667 9.33333Z" fill="white"/>
</svg>
