<svg width="20" height="20" viewBox="0 0 20 20" fill="none" xmlns="http://www.w3.org/2000/svg">
<path d="M15.8327 7.5013C15.8327 6.73526 15.6818 5.97671 15.3886 5.26898C15.0955 4.56125 14.6658 3.91819 14.1241 3.37651C13.5825 2.83484 12.9394 2.40516 12.2317 2.112C11.5239 1.81885 10.7654 1.66797 9.99935 1.66797C9.2333 1.66797 8.47476 1.81885 7.76703 2.112C7.0593 2.40516 6.41623 2.83484 5.87456 3.37651C5.33288 3.91819 4.9032 4.56125 4.61005 5.26898C4.3169 5.97671 4.16602 6.73526 4.16602 7.5013C4.16602 8.65714 4.50685 9.73214 5.08685 10.6388H5.08018L9.99935 18.3346L14.9185 10.6388H14.9127C15.5135 9.70264 15.8328 8.61365 15.8327 7.5013ZM9.99935 10.0013C9.33631 10.0013 8.70042 9.73791 8.23158 9.26907C7.76274 8.80023 7.49935 8.16434 7.49935 7.5013C7.49935 6.83826 7.76274 6.20238 8.23158 5.73354C8.70042 5.26469 9.33631 5.0013 9.99935 5.0013C10.6624 5.0013 11.2983 5.26469 11.7671 5.73354C12.236 6.20238 12.4993 6.83826 12.4993 7.5013C12.4993 8.16434 12.236 8.80023 11.7671 9.26907C11.2983 9.73791 10.6624 10.0013 9.99935 10.0013Z" fill="white"/>
</svg>
