<svg width="20" height="20" viewBox="0 0 20 20" fill="none" xmlns="http://www.w3.org/2000/svg">
<path d="M3.33268 16.6654C2.87435 16.6654 2.48213 16.5023 2.15602 16.1762C1.8299 15.8501 1.66657 15.4576 1.66602 14.9987V4.9987C1.66602 4.54036 1.82935 4.14814 2.15602 3.82203C2.48268 3.49592 2.8749 3.33259 3.33268 3.33203H16.666C17.1243 3.33203 17.5168 3.49536 17.8435 3.82203C18.1702 4.1487 18.3332 4.54092 18.3327 4.9987V14.9987C18.3327 15.457 18.1696 15.8495 17.8435 16.1762C17.5174 16.5029 17.1249 16.6659 16.666 16.6654H3.33268ZM9.99935 10.832L16.666 6.66536V4.9987L9.99935 9.16536L3.33268 4.9987V6.66536L9.99935 10.832Z" fill="white"/>
</svg>
