<svg width="168" height="41" viewBox="0 0 168 41" fill="none" xmlns="http://www.w3.org/2000/svg">
<g clip-path="url(#clip0_67_238)">
<path d="M49.2773 28.9491H61.2293V25.3491H53.5253V11.7891H49.2773V28.9491Z" fill="#E0CFC3"/>
<path d="M68.3108 26.5521C66.6068 26.5521 65.7188 25.0641 65.7188 22.8321C65.7188 20.6001 66.6068 19.0881 68.3108 19.0881C70.0148 19.0881 70.9268 20.6001 70.9268 22.8321C70.9268 25.0641 70.0148 26.5521 68.3108 26.5521ZM68.3348 29.3361C72.2948 29.3361 74.8868 26.5281 74.8868 22.8321C74.8868 19.1361 72.2948 16.3281 68.3348 16.3281C64.3988 16.3281 61.7588 19.1361 61.7588 22.8321C61.7588 26.5281 64.3988 29.3361 68.3348 29.3361Z" fill="#E0CFC3"/>
<path d="M81.7415 33.2007C83.5655 33.2007 85.1735 32.7927 86.2535 31.8327C87.2375 30.9447 87.8855 29.6007 87.8855 27.7527V16.6647H84.1415V17.9847H84.0935C83.3735 16.9527 82.2695 16.3047 80.6375 16.3047C77.5895 16.3047 75.4775 18.8487 75.4775 22.4487C75.4775 26.2167 78.0455 28.2807 80.8055 28.2807C82.2935 28.2807 83.2295 27.6807 83.9495 26.8647H84.0455V28.0887C84.0455 29.5767 83.3495 30.4407 81.6935 30.4407C80.3975 30.4407 79.7495 29.8887 79.5335 29.2407H75.7415C76.1255 31.8087 78.3575 33.2007 81.7415 33.2007ZM81.7175 25.3767C80.2535 25.3767 79.2935 24.1767 79.2935 22.3287C79.2935 20.4567 80.2535 19.2567 81.7175 19.2567C83.3495 19.2567 84.2135 20.6487 84.2135 22.3047C84.2135 24.0327 83.4215 25.3767 81.7175 25.3767Z" fill="#E0CFC3"/>
<path d="M95.5833 26.5521C93.8793 26.5521 92.9912 25.0641 92.9912 22.8321C92.9912 20.6001 93.8793 19.0881 95.5833 19.0881C97.2873 19.0881 98.1992 20.6001 98.1992 22.8321C98.1992 25.0641 97.2873 26.5521 95.5833 26.5521ZM95.6072 29.3361C99.5672 29.3361 102.159 26.5281 102.159 22.8321C102.159 19.1361 99.5672 16.3281 95.6072 16.3281C91.6712 16.3281 89.0312 19.1361 89.0312 22.8321C89.0312 26.5281 91.6712 29.3361 95.6072 29.3361Z" fill="#E0CFC3"/>
<path d="M103.302 28.9491H107.214V16.6611H103.302V28.9491ZM103.302 14.9571H107.214V11.7891H103.302V14.9571Z" fill="#E0CFC3"/>
<path d="M108.911 33.0087H112.823V27.6807H112.871C113.639 28.7127 114.767 29.3367 116.351 29.3367C119.567 29.3367 121.703 26.7927 121.703 22.8087C121.703 19.1127 119.711 16.3047 116.447 16.3047C114.767 16.3047 113.567 17.0487 112.727 18.1527H112.655V16.6647H108.911V33.0087ZM115.343 26.3127C113.663 26.3127 112.703 24.9447 112.703 22.9527C112.703 20.9607 113.567 19.4487 115.271 19.4487C116.951 19.4487 117.743 20.8407 117.743 22.9527C117.743 25.0407 116.831 26.3127 115.343 26.3127Z" fill="#E0CFC3"/>
<path d="M128.072 29.3367C131.288 29.3367 133.664 27.9447 133.664 25.2567C133.664 22.1127 131.12 21.5607 128.96 21.2007C127.4 20.9127 126.008 20.7927 126.008 19.9287C126.008 19.1607 126.752 18.8007 127.712 18.8007C128.792 18.8007 129.536 19.1367 129.68 20.2407H133.28C133.088 17.8167 131.216 16.3047 127.736 16.3047C124.832 16.3047 122.432 17.6487 122.432 20.2407C122.432 23.1207 124.712 23.6967 126.848 24.0567C128.48 24.3447 129.968 24.4647 129.968 25.5687C129.968 26.3607 129.224 26.7927 128.048 26.7927C126.752 26.7927 125.936 26.1927 125.792 24.9687H122.096C122.216 27.6807 124.472 29.3367 128.072 29.3367Z" fill="#E0CFC3"/>
<path d="M138.978 29.3121C140.682 29.3121 141.762 28.6401 142.65 27.4401H142.722V28.9521H146.466V16.6641H142.554V23.5281C142.554 24.9921 141.738 26.0001 140.394 26.0001C139.146 26.0001 138.546 25.2561 138.546 23.9121V16.6641H134.658V24.7281C134.658 27.4641 136.146 29.3121 138.978 29.3121Z" fill="#E0CFC3"/>
<path d="M148.168 28.9527H152.08V22.0647C152.08 20.6007 152.8 19.5687 154.024 19.5687C155.2 19.5687 155.752 20.3367 155.752 21.6567V28.9527H159.664V22.0647C159.664 20.6007 160.36 19.5687 161.608 19.5687C162.784 19.5687 163.336 20.3367 163.336 21.6567V28.9527H167.248V20.9607C167.248 18.2007 165.856 16.3047 163.072 16.3047C161.488 16.3047 160.168 16.9767 159.208 18.4647H159.16C158.536 17.1447 157.312 16.3047 155.704 16.3047C153.928 16.3047 152.752 17.1447 151.984 18.4167H151.912V16.6647H148.168V28.9527Z" fill="#E0CFC3"/>
<path d="M25.4099 1.97573L21.4769 0.921875L18.1625 13.2914L15.1702 2.12411L11.2371 3.17797L14.4701 15.2434L6.41746 7.19085L3.53827 10.07L12.371 18.9028L1.37124 15.9554L0.317383 19.8884L12.336 23.1088C12.1984 22.5153 12.1256 21.8969 12.1256 21.2615C12.1256 16.7639 15.7716 13.1179 20.2692 13.1179C24.7668 13.1179 28.4128 16.7639 28.4128 21.2615C28.4128 21.8928 28.3409 22.5074 28.205 23.0974L39.1277 26.0241L40.1815 22.0911L28.1151 18.8579L39.1156 15.9103L38.0617 11.9773L25.9958 15.2103L34.0484 7.15779L31.1692 4.2786L22.459 12.9888L25.4099 1.97573Z" fill="#FA832F"/>
<path d="M28.1939 23.1406C27.8567 24.5662 27.1448 25.8469 26.168 26.873L34.081 34.7861L36.9602 31.9069L28.1939 23.1406Z" fill="#FA832F"/>
<path d="M26.0881 26.9609C25.0995 27.9706 23.8502 28.7241 22.4492 29.1124L25.3286 39.8584L29.2616 38.8045L26.0881 26.9609Z" fill="#FA832F"/>
<path d="M22.3023 29.1542C21.6523 29.3213 20.971 29.4101 20.2689 29.4101C19.5167 29.4101 18.7883 29.3081 18.0968 29.1172L15.2148 39.873L19.1478 40.9268L22.3023 29.1542Z" fill="#FA832F"/>
<path d="M17.9578 29.0739C16.5782 28.6663 15.3511 27.9032 14.3827 26.8906L6.4502 34.8231L9.32939 37.7023L17.9578 29.0739Z" fill="#FA832F"/>
<path d="M14.3172 26.819C13.3654 25.8 12.6721 24.5364 12.3421 23.1328L1.38379 26.0691L2.43764 30.0021L14.3172 26.819Z" fill="#FA832F"/>
</g>
<defs>
<clipPath id="clip0_67_238">
<rect width="168" height="41" fill="white"/>
</clipPath>
</defs>
</svg>
