<svg width="155" height="40" viewBox="0 0 155 40" fill="none" xmlns="http://www.w3.org/2000/svg">
<g clip-path="url(#clip0_67_255)">
<path d="M51.5821 10.2812H48V26.4445H57.9164V23.2774H51.5821V10.2812Z" fill="#2B456C"/>
<path d="M58.2588 20.9617C58.2588 24.4128 60.5741 26.7062 64.0688 26.7062C67.5417 26.7062 69.857 24.4128 69.857 20.9617C69.857 17.5106 67.5417 15.1953 64.0688 15.1953C60.5741 15.1953 58.2588 17.5106 58.2588 20.9617ZM61.6443 20.9398C61.6443 19.3017 62.6054 18.2096 64.0688 18.2096C65.5104 18.2096 66.4715 19.3017 66.4715 20.9398C66.4715 22.5999 65.5104 23.692 64.0688 23.692C62.6054 23.692 61.6443 22.5999 61.6443 20.9398Z" fill="#2B456C"/>
<path d="M70.3982 20.7915C70.3982 24.0896 72.5388 26.3175 75.5748 26.3175C77.0383 26.3175 78.3051 25.7933 78.9385 24.9415V26.4487C78.9385 27.9558 77.9993 28.9604 76.3393 28.9604C74.854 28.9604 73.8274 28.2615 73.7619 27.0166H70.3545C70.6603 30.009 72.9756 32.0183 76.1427 32.0183C79.8777 32.0183 82.2367 29.5939 82.2367 25.7496V15.5275H79.2006L79.0259 16.6414C78.4143 15.7459 77.1256 15.1562 75.6404 15.1562C72.5824 15.1562 70.3982 17.4496 70.3982 20.7915ZM73.8056 20.7041C73.8056 19.1314 74.854 18.083 76.1864 18.083C77.7372 18.083 78.873 19.1096 78.873 20.7041C78.873 22.2986 77.759 23.3907 76.2082 23.3907C74.8759 23.3907 73.8056 22.2986 73.8056 20.7041Z" fill="#2B456C"/>
<path d="M83.2168 20.9617C83.2168 24.4128 85.5321 26.7062 89.0269 26.7062C92.4998 26.7062 94.815 24.4128 94.815 20.9617C94.815 17.5106 92.4998 15.1953 89.0269 15.1953C85.5321 15.1953 83.2168 17.5106 83.2168 20.9617ZM86.6024 20.9398C86.6024 19.3017 87.5634 18.2096 89.0269 18.2096C90.4684 18.2096 91.4295 19.3017 91.4295 20.9398C91.4295 22.5999 90.4684 23.692 89.0269 23.692C87.5634 23.692 86.6024 22.5999 86.6024 20.9398Z" fill="#2B456C"/>
<path d="M97.7151 13.8224C98.7635 13.8224 99.6154 12.9705 99.6154 11.9003C99.6154 10.83 98.7635 10 97.7151 10C96.6448 10 95.793 10.83 95.793 11.9003C95.793 12.9705 96.6448 13.8224 97.7151 13.8224ZM96.0114 26.4472H99.397V15.5261H96.0114V26.4472Z" fill="#2B456C"/>
<path d="M101.368 31.6924H104.688V25.3582C105.321 26.1882 106.763 26.7561 108.27 26.7561C111.524 26.7561 113.49 24.2661 113.403 20.815C113.315 17.2984 111.284 15.1797 108.248 15.1797C106.697 15.1797 105.234 15.8568 104.622 16.8616L104.447 15.5292H101.368V31.6924ZM104.753 20.9897C104.753 19.3516 105.845 18.2595 107.418 18.2595C109.012 18.2595 110.017 19.3734 110.017 20.9897C110.017 22.6061 109.012 23.72 107.418 23.72C105.845 23.72 104.753 22.6279 104.753 20.9897Z" fill="#2B456C"/>
<path d="M113.761 22.9992C113.848 25.2053 115.596 26.7342 118.348 26.7342C120.991 26.7342 122.826 25.3363 122.826 23.0866C122.826 21.4703 121.865 20.4 120.073 19.9631L118.13 19.4826C117.431 19.3079 116.994 19.1331 116.994 18.5652C116.994 17.9973 117.452 17.626 118.13 17.626C118.894 17.626 119.396 18.1284 119.375 18.871H122.411C122.323 16.5994 120.598 15.1797 118.195 15.1797C115.771 15.1797 113.958 16.6213 113.958 18.8055C113.958 20.2689 114.766 21.4703 116.928 22.0382L118.85 22.5405C119.418 22.6934 119.658 22.9555 119.658 23.3268C119.658 23.8729 119.156 24.2224 118.304 24.2224C117.321 24.2224 116.797 23.7637 116.797 22.9992H113.761Z" fill="#2B456C"/>
<path d="M127.974 26.7284C129.307 26.7284 130.639 26.1168 131.316 25.2213L131.535 26.4445H134.702V15.5234H131.338V21.2024C131.338 22.8405 130.858 23.736 129.307 23.736C128.105 23.736 127.319 23.19 127.319 21.1587V15.5234H123.955V22.3818C123.955 24.9811 125.397 26.7284 127.974 26.7284Z" fill="#2B456C"/>
<path d="M140.036 26.4487V20.4858C140.036 18.651 141.019 18.1267 141.98 18.1267C143.05 18.1267 143.749 18.782 143.749 20.1362V26.4487H147.069V20.4858C147.069 18.6292 148.03 18.1049 148.991 18.1049C150.061 18.1049 150.782 18.7601 150.782 20.1362V26.4487H154.059V19.3062C154.059 16.8162 152.748 15.1562 149.93 15.1562C148.358 15.1562 147.069 15.9206 146.501 17.1001C145.846 15.9206 144.71 15.1562 142.897 15.1562C141.696 15.1562 140.582 15.7022 139.927 16.5759L139.796 15.5275H136.65V26.4487H140.036Z" fill="#2B456C"/>
<path d="M0 20C0 10.5719 0 5.85786 2.92893 2.92893C5.85786 0 10.5719 0 20 0C29.4281 0 34.1421 0 37.0711 2.92893C40 5.85786 40 10.5719 40 20C40 29.4281 40 34.1421 37.0711 37.0711C34.1421 40 29.4281 40 20 40C10.5719 40 5.85786 40 2.92893 37.0711C0 34.1421 0 29.4281 0 20Z" fill="#2B456C"/>
<path d="M23.9997 26C24.552 26 25.0098 26.4521 24.9001 26.9934C24.7062 27.9494 24.2352 28.8355 23.5352 29.5355C22.5976 30.4732 21.3258 31 19.9997 31C18.6736 31 17.4019 30.4732 16.4642 29.5355C15.7642 28.8355 15.2932 27.9494 15.0994 26.9934C14.9896 26.4521 15.4474 26 15.9997 26H23.9997Z" fill="#46F9C3"/>
<path d="M26.1027 17.7765C25.5692 17.9194 25.2425 18.4775 25.513 18.959C25.7977 19.4658 26.1915 19.9081 26.6706 20.2514C27.4228 20.7904 28.3386 21.052 29.2621 20.9914C30.1855 20.9309 31.0594 20.5521 31.7348 19.9195C32.4103 19.2869 32.8454 18.4396 32.9662 17.5221C33.087 16.6046 32.886 15.6736 32.3973 14.8877C31.9086 14.1019 31.1625 13.5098 30.2862 13.2123C29.4099 12.9148 28.4576 12.9304 27.5915 13.2564C27.0399 13.464 26.5451 13.7893 26.1389 14.2051C25.753 14.6002 25.9241 15.2239 26.4024 15.5L26.9097 15.7929C27.6812 16.2384 27.5291 17.3943 26.6685 17.6249L26.1027 17.7765Z" fill="#46F9C3"/>
<path d="M13.8977 17.7765C14.4312 17.9194 14.7579 18.4775 14.4874 18.959C14.2027 19.4658 13.8089 19.9081 13.3299 20.2514C12.5777 20.7904 11.6618 21.052 10.7384 20.9914C9.81496 20.9309 8.94107 20.5521 8.26564 19.9195C7.59021 19.2869 7.15502 18.4396 7.03423 17.5221C6.91344 16.6046 7.11451 15.6736 7.6032 14.8877C8.09188 14.1019 8.83794 13.5098 9.71425 13.2123C10.5905 12.9148 11.5429 12.9304 12.409 13.2564C12.9605 13.464 13.4554 13.7893 13.8616 14.2051C14.2475 14.6002 14.0763 15.2239 13.598 15.5L13.0907 15.7929C12.3192 16.2384 12.4714 17.3943 13.3319 17.6249L13.8977 17.7765Z" fill="#46F9C3"/>
</g>
<defs>
<clipPath id="clip0_67_255">
<rect width="155" height="40" fill="white"/>
</clipPath>
</defs>
</svg>
