<svg width="170" height="41" viewBox="0 0 170 41" fill="none" xmlns="http://www.w3.org/2000/svg">
<g clip-path="url(#clip0_67_214)">
<path d="M51.8604 28.1366H63.8124V24.5366H56.1084V10.9766H51.8604V28.1366Z" fill="#F1CBCB"/>
<path d="M70.8928 25.7396C69.1888 25.7396 68.3008 24.2516 68.3008 22.0196C68.3008 19.7876 69.1888 18.2756 70.8928 18.2756C72.5968 18.2756 73.5088 19.7876 73.5088 22.0196C73.5088 24.2516 72.5968 25.7396 70.8928 25.7396ZM70.9168 28.5236C74.8768 28.5236 77.4688 25.7156 77.4688 22.0196C77.4688 18.3236 74.8768 15.5156 70.9168 15.5156C66.9808 15.5156 64.3408 18.3236 64.3408 22.0196C64.3408 25.7156 66.9808 28.5236 70.9168 28.5236Z" fill="#F1CBCB"/>
<path d="M84.3236 32.3882C86.1476 32.3882 87.7556 31.9802 88.8356 31.0202C89.8196 30.1322 90.4676 28.7882 90.4676 26.9402V15.8522H86.7236V17.1722H86.6756C85.9556 16.1402 84.8516 15.4922 83.2196 15.4922C80.1716 15.4922 78.0596 18.0362 78.0596 21.6362C78.0596 25.4042 80.6276 27.4682 83.3876 27.4682C84.8756 27.4682 85.8116 26.8682 86.5316 26.0522H86.6276V27.2762C86.6276 28.7642 85.9316 29.6282 84.2756 29.6282C82.9796 29.6282 82.3316 29.0762 82.1156 28.4282H78.3236C78.7076 30.9962 80.9396 32.3882 84.3236 32.3882ZM84.2996 24.5642C82.8356 24.5642 81.8756 23.3642 81.8756 21.5162C81.8756 19.6442 82.8356 18.4442 84.2996 18.4442C85.9316 18.4442 86.7956 19.8362 86.7956 21.4922C86.7956 23.2202 86.0036 24.5642 84.2996 24.5642Z" fill="#F1CBCB"/>
<path d="M98.1663 25.7396C96.4623 25.7396 95.5743 24.2516 95.5743 22.0196C95.5743 19.7876 96.4623 18.2756 98.1663 18.2756C99.8703 18.2756 100.782 19.7876 100.782 22.0196C100.782 24.2516 99.8703 25.7396 98.1663 25.7396ZM98.1903 28.5236C102.15 28.5236 104.742 25.7156 104.742 22.0196C104.742 18.3236 102.15 15.5156 98.1903 15.5156C94.2543 15.5156 91.6143 18.3236 91.6143 22.0196C91.6143 25.7156 94.2543 28.5236 98.1903 28.5236Z" fill="#F1CBCB"/>
<path d="M105.884 28.1366H109.796V15.8486H105.884V28.1366ZM105.884 14.1446H109.796V10.9766H105.884V14.1446Z" fill="#F1CBCB"/>
<path d="M111.494 32.1962H115.406V26.8682H115.454C116.222 27.9002 117.35 28.5242 118.934 28.5242C122.15 28.5242 124.286 25.9802 124.286 21.9962C124.286 18.3002 122.294 15.4922 119.03 15.4922C117.35 15.4922 116.15 16.2362 115.31 17.3402H115.238V15.8522H111.494V32.1962ZM117.926 25.5002C116.246 25.5002 115.286 24.1322 115.286 22.1402C115.286 20.1482 116.15 18.6362 117.854 18.6362C119.534 18.6362 120.326 20.0282 120.326 22.1402C120.326 24.2282 119.414 25.5002 117.926 25.5002Z" fill="#F1CBCB"/>
<path d="M130.655 28.5242C133.871 28.5242 136.247 27.1322 136.247 24.4442C136.247 21.3002 133.703 20.7482 131.543 20.3882C129.983 20.1002 128.591 19.9802 128.591 19.1162C128.591 18.3482 129.335 17.9882 130.295 17.9882C131.375 17.9882 132.119 18.3242 132.263 19.4282H135.863C135.671 17.0042 133.799 15.4922 130.319 15.4922C127.415 15.4922 125.015 16.8362 125.015 19.4282C125.015 22.3082 127.295 22.8842 129.431 23.2442C131.063 23.5322 132.551 23.6522 132.551 24.7562C132.551 25.5482 131.807 25.9802 130.631 25.9802C129.335 25.9802 128.519 25.3802 128.375 24.1562H124.679C124.799 26.8682 127.055 28.5242 130.655 28.5242Z" fill="#F1CBCB"/>
<path d="M141.561 28.4996C143.265 28.4996 144.345 27.8276 145.233 26.6276H145.305V28.1396H149.049V15.8516H145.137V22.7156C145.137 24.1796 144.321 25.1876 142.977 25.1876C141.729 25.1876 141.129 24.4436 141.129 23.0996V15.8516H137.241V23.9156C137.241 26.6516 138.729 28.4996 141.561 28.4996Z" fill="#F1CBCB"/>
<path d="M150.75 28.1402H154.662V21.2522C154.662 19.7882 155.382 18.7562 156.606 18.7562C157.782 18.7562 158.334 19.5242 158.334 20.8442V28.1402H162.246V21.2522C162.246 19.7882 162.942 18.7562 164.19 18.7562C165.366 18.7562 165.918 19.5242 165.918 20.8442V28.1402H169.83V20.1482C169.83 17.3882 168.438 15.4922 165.654 15.4922C164.07 15.4922 162.75 16.1642 161.79 17.6522H161.742C161.118 16.3322 159.894 15.4922 158.286 15.4922C156.51 15.4922 155.334 16.3322 154.566 17.6042H154.494V15.8522H150.75V28.1402Z" fill="#F1CBCB"/>
<path fill-rule="evenodd" clip-rule="evenodd" d="M20.6836 40.1406C31.7293 40.1406 40.6836 31.1863 40.6836 20.1406C40.6836 9.09493 31.7293 0.140625 20.6836 0.140625C9.63788 0.140625 0.683594 9.09493 0.683594 20.1406C0.683594 31.1863 9.63788 40.1406 20.6836 40.1406ZM26.9229 9.45746C27.2266 8.37867 26.1797 7.74075 25.2236 8.42192L11.8767 17.9302C10.8398 18.6689 11.0029 20.1406 12.1217 20.1406H15.6363V20.1134H22.4861L16.9048 22.0827L14.4443 30.8238C14.1406 31.9026 15.1874 32.5405 16.1436 31.8593L29.4905 22.3511C30.5274 21.6124 30.3642 20.1406 29.2455 20.1406H23.9157L26.9229 9.45746Z" fill="#F36F6F"/>
</g>
<defs>
<clipPath id="clip0_67_214">
<rect width="170" height="41" fill="white"/>
</clipPath>
</defs>
</svg>
