<svg width="123" height="44" viewBox="0 0 123 44" fill="none" xmlns="http://www.w3.org/2000/svg">
<path d="M54.1963 28.9975H57.7153V12.4375H54.1963V28.9975Z" fill="#60C13C"/>
<path d="M64.9333 29.3674C68.6133 29.3674 71.0283 26.9984 71.0283 22.8124C71.0283 18.7644 68.6823 16.2344 64.9333 16.2344C61.2533 16.2344 58.8613 18.6034 58.8613 22.8124C58.8613 26.8834 61.1843 29.3674 64.9333 29.3674ZM64.9333 26.5154C63.3463 26.5154 62.4723 25.2044 62.4723 22.8124C62.4723 20.3974 63.3233 19.0864 64.9333 19.0864C66.5433 19.0864 67.4173 20.4204 67.4173 22.8124C67.4173 25.2274 66.5663 26.5154 64.9333 26.5154Z" fill="#60C13C"/>
<path d="M76.7539 29.0224C78.0879 29.0224 79.1919 28.4704 79.9739 27.3894V29.4594C79.9739 31.1844 79.1229 31.7594 77.8579 31.7594C76.6389 31.7594 75.6959 31.1614 75.5579 30.0574H72.0389C72.4759 33.0704 74.7529 34.4504 77.9039 34.4504C81.1469 34.4504 83.4929 32.7254 83.4929 29.4134V16.6254H79.9739V17.7754C79.2149 16.7634 78.1339 16.2344 76.7539 16.2344C73.6719 16.2344 71.6709 18.5344 71.6709 22.6514C71.6709 26.5844 73.6259 29.0224 76.7539 29.0224ZM77.6049 26.1704C76.0869 26.1704 75.2819 24.9054 75.2819 22.6514C75.2819 20.3284 76.0869 19.0864 77.6049 19.0864C79.1459 19.0864 79.9739 20.3514 79.9739 22.6284C79.9739 24.9284 79.1689 26.1704 77.6049 26.1704Z" fill="#60C13C"/>
<path d="M90.7312 29.3674C94.4112 29.3674 96.8262 26.9984 96.8262 22.8124C96.8262 18.7644 94.4802 16.2344 90.7312 16.2344C87.0512 16.2344 84.6592 18.6034 84.6592 22.8124C84.6592 26.8834 86.9822 29.3674 90.7312 29.3674ZM90.7312 26.5154C89.1442 26.5154 88.2702 25.2044 88.2702 22.8124C88.2702 20.3974 89.1212 19.0864 90.7312 19.0864C92.3412 19.0864 93.2152 20.4204 93.2152 22.8124C93.2152 25.2274 92.3642 26.5154 90.7312 26.5154Z" fill="#60C13C"/>
<path d="M97.998 15.3815H101.517V12.4375H97.998V15.3815ZM97.998 28.9975H101.517V16.6235H97.998V28.9975Z" fill="#60C13C"/>
<path d="M106.711 34.0824V27.7574C107.447 28.8154 108.505 29.3674 109.816 29.3674C112.967 29.3674 115.014 26.9984 115.014 22.7894C115.014 18.7414 113.013 16.2344 109.816 16.2344C108.528 16.2344 107.47 16.8324 106.711 17.9134V16.6254H103.192V34.0824H106.711ZM109.08 19.0864C110.575 19.0864 111.403 20.3974 111.403 22.7894C111.403 25.2044 110.598 26.5154 109.08 26.5154C107.539 26.5154 106.711 25.1814 106.711 22.7894C106.711 20.3974 107.516 19.0864 109.08 19.0864Z" fill="#60C13C"/>
<path d="M119.24 20.0524C119.24 19.3854 119.838 18.9254 120.758 18.9254C122 18.9254 122.736 19.4544 122.943 20.7194H126.439C126.094 17.5914 123.84 16.2344 120.873 16.2344C117.561 16.2344 115.882 18.1664 115.882 20.2364C115.882 25.2044 123.38 23.0654 123.38 25.4574C123.38 26.2164 122.759 26.6994 121.517 26.6994C120.206 26.6994 119.263 26.0784 119.102 24.9284H115.583C116.043 27.9874 118.297 29.3674 121.425 29.3674C124.645 29.3674 126.899 27.6884 126.899 25.2504C126.899 20.3514 119.24 22.4904 119.24 20.0524Z" fill="#60C13C"/>
<path d="M40.8504 34.0526C44.6624 30.6486 47 26.0548 47 21C47 10.5066 36.9264 2 24.5 2C12.0736 2 2 10.5066 2 21C2 31.4934 12.0736 40 24.5 40C28.0253 40 31.3613 39.3154 34.3316 38.0949C37.8208 40.2486 42.0957 41.7967 46.8169 41.4702C44.3227 40.8362 42.1773 38.2679 40.8504 34.0526Z" fill="#B7EFA2"/>
<path d="M41 21C41 28.732 33.6127 35 24.5 35C15.3873 35 8 28.732 8 21C8 13.268 15.3873 7 24.5 7C33.6127 7 41 13.268 41 21Z" fill="#9AE57E"/>
<path d="M35 21C35 25.9706 30.299 30 24.5 30C18.701 30 14 25.9706 14 21C14 16.0294 18.701 12 24.5 12C30.299 12 35 16.0294 35 21Z" fill="#60C13C"/>
</svg>
