<svg width="171" height="32" viewBox="0 0 171 32" fill="none" xmlns="http://www.w3.org/2000/svg">
<g clip-path="url(#clip0_67_197)">
<path d="M67.5821 6.28125H64V22.4445H73.9164V19.2774H67.5821V6.28125Z" fill="#5C5AD7"/>
<path d="M74.2588 16.9617C74.2588 20.4128 76.5741 22.7062 80.0688 22.7062C83.5417 22.7062 85.857 20.4128 85.857 16.9617C85.857 13.5106 83.5417 11.1953 80.0688 11.1953C76.5741 11.1953 74.2588 13.5106 74.2588 16.9617ZM77.6443 16.9398C77.6443 15.3017 78.6054 14.2096 80.0688 14.2096C81.5104 14.2096 82.4715 15.3017 82.4715 16.9398C82.4715 18.5999 81.5104 19.692 80.0688 19.692C78.6054 19.692 77.6443 18.5999 77.6443 16.9398Z" fill="#5C5AD7"/>
<path d="M86.3982 16.7915C86.3982 20.0896 88.5388 22.3175 91.5748 22.3175C93.0383 22.3175 94.3051 21.7933 94.9385 20.9415V22.4487C94.9385 23.9558 93.9993 24.9604 92.3393 24.9604C90.854 24.9604 89.8274 24.2615 89.7619 23.0166H86.3545C86.6603 26.009 88.9756 28.0183 92.1427 28.0183C95.8777 28.0183 98.2367 25.5939 98.2367 21.7496V11.5275H95.2006L95.0259 12.6414C94.4143 11.7459 93.1256 11.1562 91.6404 11.1562C88.5824 11.1562 86.3982 13.4496 86.3982 16.7915ZM89.8056 16.7041C89.8056 15.1314 90.854 14.083 92.1864 14.083C93.7372 14.083 94.873 15.1096 94.873 16.7041C94.873 18.2986 93.759 19.3907 92.2082 19.3907C90.8759 19.3907 89.8056 18.2986 89.8056 16.7041Z" fill="#5C5AD7"/>
<path d="M99.2168 16.9617C99.2168 20.4128 101.532 22.7062 105.027 22.7062C108.5 22.7062 110.815 20.4128 110.815 16.9617C110.815 13.5106 108.5 11.1953 105.027 11.1953C101.532 11.1953 99.2168 13.5106 99.2168 16.9617ZM102.602 16.9398C102.602 15.3017 103.563 14.2096 105.027 14.2096C106.468 14.2096 107.429 15.3017 107.429 16.9398C107.429 18.5999 106.468 19.692 105.027 19.692C103.563 19.692 102.602 18.5999 102.602 16.9398Z" fill="#5C5AD7"/>
<path d="M113.715 9.82239C114.763 9.82239 115.615 8.97054 115.615 7.90027C115.615 6.83 114.763 6 113.715 6C112.645 6 111.793 6.83 111.793 7.90027C111.793 8.97054 112.645 9.82239 113.715 9.82239ZM112.011 22.4472H115.397V11.5261H112.011V22.4472Z" fill="#5C5AD7"/>
<path d="M117.368 27.6924H120.688V21.3582C121.321 22.1882 122.763 22.7561 124.27 22.7561C127.524 22.7561 129.49 20.2661 129.403 16.815C129.315 13.2984 127.284 11.1797 124.248 11.1797C122.697 11.1797 121.234 11.8568 120.622 12.8616L120.447 11.5292H117.368V27.6924ZM120.753 16.9897C120.753 15.3516 121.845 14.2595 123.418 14.2595C125.012 14.2595 126.017 15.3734 126.017 16.9897C126.017 18.6061 125.012 19.72 123.418 19.72C121.845 19.72 120.753 18.6279 120.753 16.9897Z" fill="#5C5AD7"/>
<path d="M129.761 18.9992C129.848 21.2053 131.596 22.7342 134.348 22.7342C136.991 22.7342 138.826 21.3363 138.826 19.0866C138.826 17.4703 137.865 16.4 136.073 15.9631L134.13 15.4826C133.431 15.3079 132.994 15.1331 132.994 14.5652C132.994 13.9973 133.452 13.626 134.13 13.626C134.894 13.626 135.396 14.1284 135.375 14.871H138.411C138.323 12.5994 136.598 11.1797 134.195 11.1797C131.771 11.1797 129.958 12.6213 129.958 14.8055C129.958 16.2689 130.766 17.4703 132.928 18.0382L134.85 18.5405C135.418 18.6934 135.658 18.9555 135.658 19.3268C135.658 19.8729 135.156 20.2224 134.304 20.2224C133.321 20.2224 132.797 19.7637 132.797 18.9992H129.761Z" fill="#5C5AD7"/>
<path d="M143.974 22.7284C145.307 22.7284 146.639 22.1168 147.316 21.2213L147.535 22.4445H150.702V11.5234H147.338V17.2024C147.338 18.8405 146.858 19.736 145.307 19.736C144.105 19.736 143.319 19.19 143.319 17.1587V11.5234H139.955V18.3818C139.955 20.9811 141.397 22.7284 143.974 22.7284Z" fill="#5C5AD7"/>
<path d="M156.036 22.4487V16.4858C156.036 14.651 157.019 14.1267 157.98 14.1267C159.05 14.1267 159.749 14.782 159.749 16.1362V22.4487H163.069V16.4858C163.069 14.6292 164.03 14.1049 164.991 14.1049C166.061 14.1049 166.782 14.7601 166.782 16.1362V22.4487H170.059V15.3062C170.059 12.8162 168.748 11.1562 165.93 11.1562C164.358 11.1562 163.069 11.9206 162.501 13.1001C161.846 11.9206 160.71 11.1562 158.897 11.1562C157.696 11.1562 156.582 11.7022 155.927 12.5759L155.796 11.5275H152.65V22.4487H156.036Z" fill="#5C5AD7"/>
<path d="M0 16C0 7.16344 7.16344 0 16 0H37C45.8366 0 53 7.16344 53 16V32H16C7.16344 32 0 24.8366 0 16Z" fill="#5C5AD7"/>
<path d="M37 6H16C10.4772 6 6 10.4772 6 16C6 21.5228 10.4772 26 16 26H37C42.5228 26 47 21.5228 47 16C47 10.4772 42.5228 6 37 6Z" fill="#041673"/>
<path d="M16 21C18.7614 21 21 18.7614 21 16C21 13.2386 18.7614 11 16 11C13.2386 11 11 13.2386 11 16C11 18.7614 13.2386 21 16 21Z" fill="white"/>
<path d="M14 15C14.5523 15 15 14.5523 15 14C15 13.4477 14.5523 13 14 13C13.4477 13 13 13.4477 13 14C13 14.5523 13.4477 15 14 15Z" fill="#0D0D0D"/>
<path d="M38 21C40.7614 21 43 18.7614 43 16C43 13.2386 40.7614 11 38 11C35.2386 11 33 13.2386 33 16C33 18.7614 35.2386 21 38 21Z" fill="white"/>
<path d="M36 15C36.5523 15 37 14.5523 37 14C37 13.4477 36.5523 13 36 13C35.4477 13 35 13.4477 35 14C35 14.5523 35.4477 15 36 15Z" fill="#0D0D0D"/>
</g>
<defs>
<clipPath id="clip0_67_197">
<rect width="171" height="32" fill="white"/>
</clipPath>
</defs>
</svg>
