<svg width="32" height="32" viewBox="0 0 32 32" fill="none" xmlns="http://www.w3.org/2000/svg">
<path d="M26.521 9.78391C26.401 10.2239 25.8676 11.3306 24.961 12.3839C24.361 23.9572 13.1343 27.7172 5.44097 23.8372C4.38764 22.4372 9.24097 23.0106 11.0143 20.3306C4.30764 16.9039 4.84097 7.74391 6.18764 8.11725C9.34764 12.3706 14.441 12.7572 15.2676 12.3706C15.2676 11.3972 14.8543 9.27725 17.1476 7.50391C18.4676 6.55725 21.2276 5.71725 23.721 8.42391C24.1476 8.70391 24.761 8.82391 25.681 8.62391C26.2276 8.34391 26.9476 8.53058 26.5743 9.50391L26.521 9.78391Z" stroke="white" stroke-width="2" stroke-linecap="round" stroke-linejoin="round"/>
</svg>
